<mxfile host="app.diagrams.net" modified="2023-10-26T00:38:54.073Z" agent="Mozilla/5.0 (Windows NT 10.0; Win64; x64) AppleWebKit/537.36 (KHTML, like Gecko) Chrome/118.0.0.0 Safari/537.36" etag="wmvblPROTvLd-QOG7yh7" version="22.0.8" type="github" pages="16">
  <diagram name="WelcomeScreen" id="fqClmME_5narkkHpZXnJ">
    <mxGraphModel dx="1050" dy="618" grid="1" gridSize="10" guides="1" tooltips="1" connect="1" arrows="1" fold="1" page="1" pageScale="1" pageWidth="850" pageHeight="1100" math="0" shadow="0">
      <root>
        <mxCell id="0" />
        <mxCell id="1" parent="0" />
        <mxCell id="-IClmxsrhl8BU1sEoQNB-3" value="&lt;h2&gt;&lt;br&gt;&lt;/h2&gt;" style="rounded=0;whiteSpace=wrap;html=1;align=center;" parent="1" vertex="1">
          <mxGeometry x="285" y="240" width="280" height="540" as="geometry" />
        </mxCell>
        <mxCell id="-IClmxsrhl8BU1sEoQNB-5" value="User&lt;br&gt;" style="shape=umlActor;verticalLabelPosition=bottom;verticalAlign=top;html=1;outlineConnect=0;" parent="1" vertex="1">
          <mxGeometry x="170" y="460" width="30" height="60" as="geometry" />
        </mxCell>
        <mxCell id="-IClmxsrhl8BU1sEoQNB-8" value="Create&lt;br&gt;Account" style="ellipse;whiteSpace=wrap;html=1;" parent="1" vertex="1">
          <mxGeometry x="365" y="370" width="120" height="60" as="geometry" />
        </mxCell>
        <mxCell id="-IClmxsrhl8BU1sEoQNB-10" value="SignIn" style="ellipse;whiteSpace=wrap;html=1;" parent="1" vertex="1">
          <mxGeometry x="365" y="560" width="120" height="60" as="geometry" />
        </mxCell>
        <mxCell id="-IClmxsrhl8BU1sEoQNB-12" value="Welcome&lt;br&gt;Screen" style="text;html=1;strokeColor=none;fillColor=none;align=center;verticalAlign=middle;whiteSpace=wrap;rounded=0;" parent="1" vertex="1">
          <mxGeometry x="395" y="250" width="60" height="30" as="geometry" />
        </mxCell>
        <mxCell id="-IClmxsrhl8BU1sEoQNB-20" value="&amp;lt;&amp;lt;actor&amp;gt;&amp;gt;&lt;br&gt;&lt;br&gt;&lt;b&gt;UserManagementSystem&lt;br&gt;&lt;/b&gt;" style="html=1;align=center;verticalAlign=middle;dashed=0;whiteSpace=wrap;" parent="1" vertex="1">
          <mxGeometry x="620" y="460" width="160" height="70" as="geometry" />
        </mxCell>
        <mxCell id="-IClmxsrhl8BU1sEoQNB-21" value="" style="endArrow=none;html=1;rounded=0;entryX=0;entryY=0.5;entryDx=0;entryDy=0;" parent="1" target="-IClmxsrhl8BU1sEoQNB-8" edge="1">
          <mxGeometry width="50" height="50" relative="1" as="geometry">
            <mxPoint x="200" y="450" as="sourcePoint" />
            <mxPoint x="450" y="500" as="targetPoint" />
          </mxGeometry>
        </mxCell>
        <mxCell id="-IClmxsrhl8BU1sEoQNB-22" value="" style="endArrow=none;html=1;rounded=0;entryX=0;entryY=0.5;entryDx=0;entryDy=0;" parent="1" target="-IClmxsrhl8BU1sEoQNB-10" edge="1">
          <mxGeometry width="50" height="50" relative="1" as="geometry">
            <mxPoint x="210" y="510" as="sourcePoint" />
            <mxPoint x="320" y="550" as="targetPoint" />
          </mxGeometry>
        </mxCell>
        <mxCell id="-IClmxsrhl8BU1sEoQNB-24" value="" style="endArrow=none;html=1;rounded=0;entryX=1;entryY=0.5;entryDx=0;entryDy=0;exitX=0.044;exitY=0.643;exitDx=0;exitDy=0;exitPerimeter=0;" parent="1" source="-IClmxsrhl8BU1sEoQNB-20" target="-IClmxsrhl8BU1sEoQNB-8" edge="1">
          <mxGeometry width="50" height="50" relative="1" as="geometry">
            <mxPoint x="400" y="550" as="sourcePoint" />
            <mxPoint x="450" y="500" as="targetPoint" />
          </mxGeometry>
        </mxCell>
        <mxCell id="-IClmxsrhl8BU1sEoQNB-25" value="" style="endArrow=none;html=1;rounded=0;entryX=0.044;entryY=0.629;entryDx=0;entryDy=0;exitX=1;exitY=0.5;exitDx=0;exitDy=0;entryPerimeter=0;" parent="1" source="-IClmxsrhl8BU1sEoQNB-10" target="-IClmxsrhl8BU1sEoQNB-20" edge="1">
          <mxGeometry width="50" height="50" relative="1" as="geometry">
            <mxPoint x="480" y="560" as="sourcePoint" />
            <mxPoint x="610" y="510" as="targetPoint" />
          </mxGeometry>
        </mxCell>
      </root>
    </mxGraphModel>
  </diagram>
  <diagram id="cRvmT_Yltt485k_hvm8A" name="Sign Up">
    <mxGraphModel dx="1050" dy="618" grid="1" gridSize="10" guides="1" tooltips="1" connect="1" arrows="1" fold="1" page="1" pageScale="1" pageWidth="850" pageHeight="1100" math="0" shadow="0">
      <root>
        <mxCell id="0" />
        <mxCell id="1" parent="0" />
        <mxCell id="HacYsj_Oae6z6IkXfiRf-1" value="&lt;h2&gt;&lt;br&gt;&lt;/h2&gt;" style="rounded=0;whiteSpace=wrap;html=1;align=center;" parent="1" vertex="1">
          <mxGeometry x="285" y="240" width="280" height="540" as="geometry" />
        </mxCell>
        <mxCell id="HacYsj_Oae6z6IkXfiRf-3" value="User&lt;br&gt;" style="shape=umlActor;verticalLabelPosition=bottom;verticalAlign=top;html=1;outlineConnect=0;" parent="1" vertex="1">
          <mxGeometry x="170" y="460" width="30" height="60" as="geometry" />
        </mxCell>
        <mxCell id="HacYsj_Oae6z6IkXfiRf-4" value="&amp;lt;&amp;lt;actor&amp;gt;&amp;gt;&lt;br&gt;&lt;br&gt;&lt;b style=&quot;border-color: var(--border-color);&quot;&gt;UserManagementSystem&lt;/b&gt;&lt;b&gt;&lt;br&gt;&lt;/b&gt;" style="html=1;align=center;verticalAlign=middle;dashed=0;whiteSpace=wrap;" parent="1" vertex="1">
          <mxGeometry x="620" y="460" width="160" height="70" as="geometry" />
        </mxCell>
        <mxCell id="HacYsj_Oae6z6IkXfiRf-6" value="Sign Up" style="text;html=1;strokeColor=none;fillColor=none;align=center;verticalAlign=middle;whiteSpace=wrap;rounded=0;" parent="1" vertex="1">
          <mxGeometry x="395" y="250" width="60" height="30" as="geometry" />
        </mxCell>
        <mxCell id="HacYsj_Oae6z6IkXfiRf-7" value="Hit Sign Up Button" style="ellipse;whiteSpace=wrap;html=1;" parent="1" vertex="1">
          <mxGeometry x="365" y="460" width="120" height="60" as="geometry" />
        </mxCell>
        <mxCell id="HacYsj_Oae6z6IkXfiRf-8" value="" style="endArrow=none;html=1;rounded=0;" parent="1" target="HacYsj_Oae6z6IkXfiRf-7" edge="1">
          <mxGeometry width="50" height="50" relative="1" as="geometry">
            <mxPoint x="210" y="490" as="sourcePoint" />
            <mxPoint x="450" y="400" as="targetPoint" />
          </mxGeometry>
        </mxCell>
        <mxCell id="HacYsj_Oae6z6IkXfiRf-10" value="" style="endArrow=none;html=1;rounded=0;exitX=1;exitY=0.5;exitDx=0;exitDy=0;entryX=-0.006;entryY=0.414;entryDx=0;entryDy=0;entryPerimeter=0;" parent="1" source="HacYsj_Oae6z6IkXfiRf-7" target="HacYsj_Oae6z6IkXfiRf-4" edge="1">
          <mxGeometry width="50" height="50" relative="1" as="geometry">
            <mxPoint x="530" y="460" as="sourcePoint" />
            <mxPoint x="620" y="500" as="targetPoint" />
          </mxGeometry>
        </mxCell>
      </root>
    </mxGraphModel>
  </diagram>
  <diagram id="eESdmMK-guKYqUh9x3hQ" name="SignIn">
    <mxGraphModel dx="1434" dy="756" grid="1" gridSize="10" guides="1" tooltips="1" connect="1" arrows="1" fold="1" page="1" pageScale="1" pageWidth="850" pageHeight="1100" math="0" shadow="0">
      <root>
        <mxCell id="0" />
        <mxCell id="1" parent="0" />
        <mxCell id="5NIJwpOUUDU99Ntzet9--1" value="&lt;h2&gt;&lt;br&gt;&lt;/h2&gt;" style="rounded=0;whiteSpace=wrap;html=1;align=center;" parent="1" vertex="1">
          <mxGeometry x="285" y="240" width="280" height="540" as="geometry" />
        </mxCell>
        <mxCell id="5NIJwpOUUDU99Ntzet9--2" value="Fill Sign In Form" style="ellipse;whiteSpace=wrap;html=1;" parent="1" vertex="1">
          <mxGeometry x="360" y="350" width="120" height="60" as="geometry" />
        </mxCell>
        <mxCell id="5NIJwpOUUDU99Ntzet9--3" value="User&lt;br&gt;" style="shape=umlActor;verticalLabelPosition=bottom;verticalAlign=top;html=1;outlineConnect=0;" parent="1" vertex="1">
          <mxGeometry x="170" y="460" width="30" height="60" as="geometry" />
        </mxCell>
        <mxCell id="5NIJwpOUUDU99Ntzet9--4" value="&amp;lt;&amp;lt;actor&amp;gt;&amp;gt;&lt;br&gt;&lt;br&gt;&lt;b&gt;Users&#39;&lt;br&gt;&amp;nbsp;Database&lt;br&gt;&lt;/b&gt;" style="html=1;align=center;verticalAlign=middle;dashed=0;whiteSpace=wrap;" parent="1" vertex="1">
          <mxGeometry x="620" y="460" width="160" height="70" as="geometry" />
        </mxCell>
        <mxCell id="5NIJwpOUUDU99Ntzet9--5" value="" style="endArrow=none;html=1;rounded=0;entryX=0;entryY=0.5;entryDx=0;entryDy=0;" parent="1" target="5NIJwpOUUDU99Ntzet9--2" edge="1">
          <mxGeometry width="50" height="50" relative="1" as="geometry">
            <mxPoint x="200" y="450" as="sourcePoint" />
            <mxPoint x="365" y="400" as="targetPoint" />
          </mxGeometry>
        </mxCell>
        <mxCell id="5NIJwpOUUDU99Ntzet9--6" value="Sign In" style="text;html=1;strokeColor=none;fillColor=none;align=center;verticalAlign=middle;whiteSpace=wrap;rounded=0;" parent="1" vertex="1">
          <mxGeometry x="395" y="250" width="60" height="30" as="geometry" />
        </mxCell>
        <mxCell id="5NIJwpOUUDU99Ntzet9--7" value="Hit Sign In Button" style="ellipse;whiteSpace=wrap;html=1;" parent="1" vertex="1">
          <mxGeometry x="305" y="570" width="120" height="60" as="geometry" />
        </mxCell>
        <mxCell id="5NIJwpOUUDU99Ntzet9--8" value="" style="endArrow=none;html=1;rounded=0;" parent="1" target="5NIJwpOUUDU99Ntzet9--7" edge="1">
          <mxGeometry width="50" height="50" relative="1" as="geometry">
            <mxPoint x="210" y="490" as="sourcePoint" />
            <mxPoint x="450" y="400" as="targetPoint" />
          </mxGeometry>
        </mxCell>
        <mxCell id="5NIJwpOUUDU99Ntzet9--11" value="Validates User Credentials" style="ellipse;whiteSpace=wrap;html=1;" parent="1" vertex="1">
          <mxGeometry x="430" y="470" width="120" height="60" as="geometry" />
        </mxCell>
        <mxCell id="5NIJwpOUUDU99Ntzet9--12" value="" style="endArrow=none;html=1;rounded=0;exitX=1;exitY=0.5;exitDx=0;exitDy=0;" parent="1" source="5NIJwpOUUDU99Ntzet9--11" edge="1">
          <mxGeometry width="50" height="50" relative="1" as="geometry">
            <mxPoint x="489" y="576" as="sourcePoint" />
            <mxPoint x="620" y="500" as="targetPoint" />
          </mxGeometry>
        </mxCell>
      </root>
    </mxGraphModel>
  </diagram>
  <diagram id="LzqwUGf8YQLx9qe_LuN2" name="HomeScreen">
    <mxGraphModel dx="816" dy="1130" grid="1" gridSize="10" guides="1" tooltips="1" connect="1" arrows="1" fold="1" page="1" pageScale="1" pageWidth="850" pageHeight="1100" math="0" shadow="0">
      <root>
        <mxCell id="0" />
        <mxCell id="1" parent="0" />
        <mxCell id="QnENIeLkc8DLRJsTYQZo-1" value="&lt;h2&gt;&lt;br&gt;&lt;/h2&gt;" style="rounded=0;whiteSpace=wrap;html=1;align=center;" parent="1" vertex="1">
          <mxGeometry x="285" y="240" width="295" height="670" as="geometry" />
        </mxCell>
        <mxCell id="xgPKF6vfBRPMPrFfqhJ2-1" value="ViewATimeline" style="ellipse;whiteSpace=wrap;html=1;" parent="1" vertex="1">
          <mxGeometry x="305" y="300" width="120" height="60" as="geometry" />
        </mxCell>
        <mxCell id="RUjTDmreWd7cxXNFE6tL-1" value="User&lt;br&gt;" style="shape=umlActor;verticalLabelPosition=bottom;verticalAlign=top;html=1;outlineConnect=0;" parent="1" vertex="1">
          <mxGeometry x="170" y="460" width="30" height="60" as="geometry" />
        </mxCell>
        <mxCell id="RUjTDmreWd7cxXNFE6tL-2" value="&amp;lt;&amp;lt;actor&amp;gt;&amp;gt;&lt;br&gt;&lt;br&gt;&lt;b&gt;Application&lt;br&gt;&lt;/b&gt;" style="html=1;align=center;verticalAlign=middle;dashed=0;whiteSpace=wrap;" parent="1" vertex="1">
          <mxGeometry x="630" y="460" width="160" height="70" as="geometry" />
        </mxCell>
        <mxCell id="RUjTDmreWd7cxXNFE6tL-3" value="" style="endArrow=none;html=1;rounded=0;entryX=0;entryY=0.5;entryDx=0;entryDy=0;" parent="1" target="xgPKF6vfBRPMPrFfqhJ2-1" edge="1">
          <mxGeometry width="50" height="50" relative="1" as="geometry">
            <mxPoint x="200" y="450" as="sourcePoint" />
            <mxPoint x="365" y="400" as="targetPoint" />
          </mxGeometry>
        </mxCell>
        <mxCell id="Y7xHQ-ahwaZW3S8Cu8cL-1" value="HomeScreen" style="text;html=1;strokeColor=none;fillColor=none;align=center;verticalAlign=middle;whiteSpace=wrap;rounded=0;" parent="1" vertex="1">
          <mxGeometry x="402.5" y="250" width="60" height="30" as="geometry" />
        </mxCell>
        <mxCell id="Y7xHQ-ahwaZW3S8Cu8cL-2" value="ViewOtherUser Profiles" style="ellipse;whiteSpace=wrap;html=1;" parent="1" vertex="1">
          <mxGeometry x="305" y="370" width="120" height="60" as="geometry" />
        </mxCell>
        <mxCell id="Y7xHQ-ahwaZW3S8Cu8cL-3" value="" style="endArrow=none;html=1;rounded=0;" parent="1" target="Y7xHQ-ahwaZW3S8Cu8cL-2" edge="1">
          <mxGeometry width="50" height="50" relative="1" as="geometry">
            <mxPoint x="210" y="490" as="sourcePoint" />
            <mxPoint x="450" y="400" as="targetPoint" />
          </mxGeometry>
        </mxCell>
        <mxCell id="Y7xHQ-ahwaZW3S8Cu8cL-9" value="" style="endArrow=none;html=1;rounded=0;entryX=0;entryY=0.5;entryDx=0;entryDy=0;exitX=0.95;exitY=0.433;exitDx=0;exitDy=0;exitPerimeter=0;" parent="1" source="Y7xHQ-ahwaZW3S8Cu8cL-10" target="RUjTDmreWd7cxXNFE6tL-2" edge="1">
          <mxGeometry width="50" height="50" relative="1" as="geometry">
            <mxPoint x="610" y="720" as="sourcePoint" />
            <mxPoint x="775" y="620" as="targetPoint" />
          </mxGeometry>
        </mxCell>
        <mxCell id="Y7xHQ-ahwaZW3S8Cu8cL-10" value="ShowADetailed Timeline" style="ellipse;whiteSpace=wrap;html=1;" parent="1" vertex="1">
          <mxGeometry x="440" y="300" width="120" height="60" as="geometry" />
        </mxCell>
        <mxCell id="Y7xHQ-ahwaZW3S8Cu8cL-11" value="ShowOtherUser Profiles" style="ellipse;whiteSpace=wrap;html=1;" parent="1" vertex="1">
          <mxGeometry x="440" y="370" width="120" height="60" as="geometry" />
        </mxCell>
        <mxCell id="Y7xHQ-ahwaZW3S8Cu8cL-12" value="" style="endArrow=none;html=1;rounded=0;exitX=1;exitY=0.5;exitDx=0;exitDy=0;entryX=0;entryY=0.5;entryDx=0;entryDy=0;" parent="1" source="Y7xHQ-ahwaZW3S8Cu8cL-11" target="RUjTDmreWd7cxXNFE6tL-2" edge="1">
          <mxGeometry width="50" height="50" relative="1" as="geometry">
            <mxPoint x="489" y="576" as="sourcePoint" />
            <mxPoint x="620" y="500" as="targetPoint" />
          </mxGeometry>
        </mxCell>
        <mxCell id="Y7xHQ-ahwaZW3S8Cu8cL-13" value="ClickOnTimeline Tab" style="ellipse;whiteSpace=wrap;html=1;" parent="1" vertex="1">
          <mxGeometry x="305" y="530" width="120" height="60" as="geometry" />
        </mxCell>
        <mxCell id="Y7xHQ-ahwaZW3S8Cu8cL-14" value="ClickOnJournal Tab" style="ellipse;whiteSpace=wrap;html=1;" parent="1" vertex="1">
          <mxGeometry x="305" y="450" width="120" height="60" as="geometry" />
        </mxCell>
        <mxCell id="Y7xHQ-ahwaZW3S8Cu8cL-15" value="ClickOnForum Tab" style="ellipse;whiteSpace=wrap;html=1;" parent="1" vertex="1">
          <mxGeometry x="305" y="600" width="120" height="60" as="geometry" />
        </mxCell>
        <mxCell id="Y7xHQ-ahwaZW3S8Cu8cL-16" value="Edit Profile" style="ellipse;whiteSpace=wrap;html=1;" parent="1" vertex="1">
          <mxGeometry x="365" y="680" width="120" height="60" as="geometry" />
        </mxCell>
        <mxCell id="C9wBBNSY1IDAuHzlHoPK-1" value="" style="endArrow=none;html=1;rounded=0;entryX=0;entryY=0.5;entryDx=0;entryDy=0;" parent="1" target="Y7xHQ-ahwaZW3S8Cu8cL-14" edge="1">
          <mxGeometry width="50" height="50" relative="1" as="geometry">
            <mxPoint x="220" y="500" as="sourcePoint" />
            <mxPoint x="336" y="433" as="targetPoint" />
          </mxGeometry>
        </mxCell>
        <mxCell id="C9wBBNSY1IDAuHzlHoPK-2" value="" style="endArrow=none;html=1;rounded=0;entryX=0;entryY=0.5;entryDx=0;entryDy=0;" parent="1" target="Y7xHQ-ahwaZW3S8Cu8cL-13" edge="1">
          <mxGeometry width="50" height="50" relative="1" as="geometry">
            <mxPoint x="220" y="520" as="sourcePoint" />
            <mxPoint x="315" y="490" as="targetPoint" />
          </mxGeometry>
        </mxCell>
        <mxCell id="C9wBBNSY1IDAuHzlHoPK-3" value="" style="endArrow=none;html=1;rounded=0;entryX=0;entryY=0.5;entryDx=0;entryDy=0;" parent="1" target="Y7xHQ-ahwaZW3S8Cu8cL-15" edge="1">
          <mxGeometry width="50" height="50" relative="1" as="geometry">
            <mxPoint x="210" y="540" as="sourcePoint" />
            <mxPoint x="315" y="570" as="targetPoint" />
          </mxGeometry>
        </mxCell>
        <mxCell id="C9wBBNSY1IDAuHzlHoPK-4" value="" style="endArrow=none;html=1;rounded=0;entryX=0;entryY=0.5;entryDx=0;entryDy=0;" parent="1" target="Y7xHQ-ahwaZW3S8Cu8cL-16" edge="1">
          <mxGeometry width="50" height="50" relative="1" as="geometry">
            <mxPoint x="200" y="560" as="sourcePoint" />
            <mxPoint x="285" y="660" as="targetPoint" />
          </mxGeometry>
        </mxCell>
        <mxCell id="o72KQatLgbKRo6oe6BfJ-1" value="Open Journal Tab Screen" style="ellipse;whiteSpace=wrap;html=1;" parent="1" vertex="1">
          <mxGeometry x="440" y="450" width="120" height="60" as="geometry" />
        </mxCell>
        <mxCell id="o72KQatLgbKRo6oe6BfJ-2" value="Open Timeline&lt;span style=&quot;white-space: pre;&quot;&gt;&#x9;&lt;/span&gt;Tab Screen" style="ellipse;whiteSpace=wrap;html=1;" parent="1" vertex="1">
          <mxGeometry x="440" y="530" width="120" height="60" as="geometry" />
        </mxCell>
        <mxCell id="o72KQatLgbKRo6oe6BfJ-3" value="Open Forum Tab Screen" style="ellipse;whiteSpace=wrap;html=1;" parent="1" vertex="1">
          <mxGeometry x="440" y="600" width="120" height="60" as="geometry" />
        </mxCell>
        <mxCell id="o72KQatLgbKRo6oe6BfJ-5" value="" style="endArrow=none;html=1;rounded=0;entryX=0;entryY=0.5;entryDx=0;entryDy=0;exitX=1;exitY=0.5;exitDx=0;exitDy=0;" parent="1" source="o72KQatLgbKRo6oe6BfJ-1" target="RUjTDmreWd7cxXNFE6tL-2" edge="1">
          <mxGeometry width="50" height="50" relative="1" as="geometry">
            <mxPoint x="230" y="530" as="sourcePoint" />
            <mxPoint x="315" y="570" as="targetPoint" />
          </mxGeometry>
        </mxCell>
        <mxCell id="o72KQatLgbKRo6oe6BfJ-6" value="" style="endArrow=none;html=1;rounded=0;entryX=0;entryY=0.5;entryDx=0;entryDy=0;exitX=1;exitY=0.5;exitDx=0;exitDy=0;" parent="1" source="o72KQatLgbKRo6oe6BfJ-2" target="RUjTDmreWd7cxXNFE6tL-2" edge="1">
          <mxGeometry width="50" height="50" relative="1" as="geometry">
            <mxPoint x="570" y="490" as="sourcePoint" />
            <mxPoint x="640" y="505" as="targetPoint" />
          </mxGeometry>
        </mxCell>
        <mxCell id="o72KQatLgbKRo6oe6BfJ-7" value="" style="endArrow=none;html=1;rounded=0;exitX=1;exitY=0.5;exitDx=0;exitDy=0;" parent="1" source="o72KQatLgbKRo6oe6BfJ-3" edge="1">
          <mxGeometry width="50" height="50" relative="1" as="geometry">
            <mxPoint x="570" y="570" as="sourcePoint" />
            <mxPoint x="630" y="490" as="targetPoint" />
          </mxGeometry>
        </mxCell>
        <mxCell id="o72KQatLgbKRo6oe6BfJ-8" value="" style="endArrow=none;html=1;rounded=0;exitX=1;exitY=0.5;exitDx=0;exitDy=0;entryX=0;entryY=0.5;entryDx=0;entryDy=0;" parent="1" source="Y7xHQ-ahwaZW3S8Cu8cL-16" target="o72KQatLgbKRo6oe6BfJ-9" edge="1">
          <mxGeometry width="50" height="50" relative="1" as="geometry">
            <mxPoint x="560" y="710" as="sourcePoint" />
            <mxPoint x="640" y="660" as="targetPoint" />
          </mxGeometry>
        </mxCell>
        <mxCell id="o72KQatLgbKRo6oe6BfJ-9" value="&amp;lt;&amp;lt;actor&amp;gt;&amp;gt;&lt;br&gt;&lt;br&gt;&lt;b&gt;Application&#39;s Database&lt;br&gt;&lt;/b&gt;" style="html=1;align=center;verticalAlign=middle;dashed=0;whiteSpace=wrap;" parent="1" vertex="1">
          <mxGeometry x="640" y="630" width="160" height="70" as="geometry" />
        </mxCell>
        <mxCell id="_5GJEeewoF4RD_5d01EF-1" value="Search For A Timeline" style="ellipse;whiteSpace=wrap;html=1;" parent="1" vertex="1">
          <mxGeometry x="365" y="840" width="120" height="60" as="geometry" />
        </mxCell>
        <mxCell id="_5GJEeewoF4RD_5d01EF-2" value="" style="endArrow=none;html=1;rounded=0;entryX=0;entryY=0.5;entryDx=0;entryDy=0;" parent="1" target="_5GJEeewoF4RD_5d01EF-1" edge="1">
          <mxGeometry width="50" height="50" relative="1" as="geometry">
            <mxPoint x="180" y="560" as="sourcePoint" />
            <mxPoint x="375" y="720" as="targetPoint" />
          </mxGeometry>
        </mxCell>
        <mxCell id="_5GJEeewoF4RD_5d01EF-3" value="" style="endArrow=none;html=1;rounded=0;exitX=1;exitY=0.5;exitDx=0;exitDy=0;entryX=0.45;entryY=1.043;entryDx=0;entryDy=0;entryPerimeter=0;" parent="1" source="_5GJEeewoF4RD_5d01EF-1" target="o72KQatLgbKRo6oe6BfJ-9" edge="1">
          <mxGeometry width="50" height="50" relative="1" as="geometry">
            <mxPoint x="495" y="720" as="sourcePoint" />
            <mxPoint x="640" y="665" as="targetPoint" />
          </mxGeometry>
        </mxCell>
        <mxCell id="_5GJEeewoF4RD_5d01EF-4" value="" style="endArrow=none;html=1;rounded=0;exitX=1;exitY=0.5;exitDx=0;exitDy=0;entryX=0.5;entryY=1;entryDx=0;entryDy=0;" parent="1" source="Y7xHQ-ahwaZW3S8Cu8cL-16" target="RUjTDmreWd7cxXNFE6tL-2" edge="1">
          <mxGeometry width="50" height="50" relative="1" as="geometry">
            <mxPoint x="570" y="640" as="sourcePoint" />
            <mxPoint x="640" y="500" as="targetPoint" />
          </mxGeometry>
        </mxCell>
        <mxCell id="JCVrzmVLD_Iwlg38iHjF-1" value="Delete Profile/Account" style="ellipse;whiteSpace=wrap;html=1;" parent="1" vertex="1">
          <mxGeometry x="365" y="760" width="120" height="60" as="geometry" />
        </mxCell>
        <mxCell id="JCVrzmVLD_Iwlg38iHjF-2" value="" style="endArrow=none;html=1;rounded=0;exitX=1;exitY=0.5;exitDx=0;exitDy=0;" parent="1" source="JCVrzmVLD_Iwlg38iHjF-1" edge="1">
          <mxGeometry width="50" height="50" relative="1" as="geometry">
            <mxPoint x="495" y="720" as="sourcePoint" />
            <mxPoint x="710" y="530" as="targetPoint" />
          </mxGeometry>
        </mxCell>
        <mxCell id="JCVrzmVLD_Iwlg38iHjF-3" value="" style="endArrow=none;html=1;rounded=0;exitX=1;exitY=0.5;exitDx=0;exitDy=0;entryX=0;entryY=1;entryDx=0;entryDy=0;" parent="1" source="JCVrzmVLD_Iwlg38iHjF-1" target="o72KQatLgbKRo6oe6BfJ-9" edge="1">
          <mxGeometry width="50" height="50" relative="1" as="geometry">
            <mxPoint x="505" y="730" as="sourcePoint" />
            <mxPoint x="730" y="550" as="targetPoint" />
          </mxGeometry>
        </mxCell>
        <mxCell id="JCVrzmVLD_Iwlg38iHjF-4" value="" style="endArrow=none;html=1;rounded=0;entryX=0;entryY=0.5;entryDx=0;entryDy=0;" parent="1" target="JCVrzmVLD_Iwlg38iHjF-1" edge="1">
          <mxGeometry width="50" height="50" relative="1" as="geometry">
            <mxPoint x="190" y="560" as="sourcePoint" />
            <mxPoint x="375" y="720" as="targetPoint" />
          </mxGeometry>
        </mxCell>
      </root>
    </mxGraphModel>
  </diagram>
  <diagram id="Mc0_t2fE0AfyHUHpj7yM" name="ViewJournal">
    <mxGraphModel dx="816" dy="1130" grid="1" gridSize="10" guides="1" tooltips="1" connect="1" arrows="1" fold="1" page="1" pageScale="1" pageWidth="850" pageHeight="1100" math="0" shadow="0">
      <root>
        <mxCell id="0" />
        <mxCell id="1" parent="0" />
        <mxCell id="yjZYg7hy8Y8F1wDOyGge-1" value="&lt;h2&gt;&lt;br&gt;&lt;/h2&gt;" style="rounded=0;whiteSpace=wrap;html=1;align=center;" parent="1" vertex="1">
          <mxGeometry x="285" y="240" width="280" height="540" as="geometry" />
        </mxCell>
        <mxCell id="yjZYg7hy8Y8F1wDOyGge-2" value="ViewAJournal" style="ellipse;whiteSpace=wrap;html=1;" parent="1" vertex="1">
          <mxGeometry x="300" y="330" width="120" height="60" as="geometry" />
        </mxCell>
        <mxCell id="yjZYg7hy8Y8F1wDOyGge-3" value="User&lt;br&gt;" style="shape=umlActor;verticalLabelPosition=bottom;verticalAlign=top;html=1;outlineConnect=0;" parent="1" vertex="1">
          <mxGeometry x="170" y="460" width="30" height="60" as="geometry" />
        </mxCell>
        <mxCell id="yjZYg7hy8Y8F1wDOyGge-4" value="&amp;lt;&amp;lt;actor&amp;gt;&amp;gt;&lt;br&gt;&lt;br&gt;&lt;b&gt;Application&lt;br&gt;&lt;/b&gt;" style="html=1;align=center;verticalAlign=middle;dashed=0;whiteSpace=wrap;" parent="1" vertex="1">
          <mxGeometry x="620" y="460" width="160" height="70" as="geometry" />
        </mxCell>
        <mxCell id="yjZYg7hy8Y8F1wDOyGge-5" value="" style="endArrow=none;html=1;rounded=0;entryX=0;entryY=0.5;entryDx=0;entryDy=0;" parent="1" target="yjZYg7hy8Y8F1wDOyGge-2" edge="1">
          <mxGeometry width="50" height="50" relative="1" as="geometry">
            <mxPoint x="200" y="450" as="sourcePoint" />
            <mxPoint x="365" y="400" as="targetPoint" />
          </mxGeometry>
        </mxCell>
        <mxCell id="yjZYg7hy8Y8F1wDOyGge-6" value="Journal View" style="text;html=1;strokeColor=none;fillColor=none;align=center;verticalAlign=middle;whiteSpace=wrap;rounded=0;" parent="1" vertex="1">
          <mxGeometry x="395" y="250" width="60" height="30" as="geometry" />
        </mxCell>
        <mxCell id="yjZYg7hy8Y8F1wDOyGge-7" value="SearchForAJournal" style="ellipse;whiteSpace=wrap;html=1;" parent="1" vertex="1">
          <mxGeometry x="365" y="670" width="120" height="60" as="geometry" />
        </mxCell>
        <mxCell id="yjZYg7hy8Y8F1wDOyGge-8" value="" style="endArrow=none;html=1;rounded=0;entryX=0;entryY=0.5;entryDx=0;entryDy=0;" parent="1" target="yjZYg7hy8Y8F1wDOyGge-7" edge="1">
          <mxGeometry width="50" height="50" relative="1" as="geometry">
            <mxPoint x="210" y="540" as="sourcePoint" />
            <mxPoint x="450" y="400" as="targetPoint" />
          </mxGeometry>
        </mxCell>
        <mxCell id="yjZYg7hy8Y8F1wDOyGge-9" value="ShowDetailed Journal View" style="ellipse;whiteSpace=wrap;html=1;" parent="1" vertex="1">
          <mxGeometry x="430" y="330" width="120" height="60" as="geometry" />
        </mxCell>
        <mxCell id="yjZYg7hy8Y8F1wDOyGge-10" value="" style="endArrow=none;html=1;rounded=0;exitX=1;exitY=0.5;exitDx=0;exitDy=0;" parent="1" source="yjZYg7hy8Y8F1wDOyGge-9" edge="1">
          <mxGeometry width="50" height="50" relative="1" as="geometry">
            <mxPoint x="489" y="576" as="sourcePoint" />
            <mxPoint x="620" y="500" as="targetPoint" />
          </mxGeometry>
        </mxCell>
        <mxCell id="ok7cAUvqmww5mjhx3ZxW-1" value="&amp;lt;&amp;lt;actor&amp;gt;&amp;gt;&lt;br&gt;&lt;br&gt;&lt;b&gt;Application Database&lt;br&gt;&lt;/b&gt;" style="html=1;align=center;verticalAlign=middle;dashed=0;whiteSpace=wrap;" parent="1" vertex="1">
          <mxGeometry x="620" y="620" width="160" height="70" as="geometry" />
        </mxCell>
        <mxCell id="ok7cAUvqmww5mjhx3ZxW-2" value="" style="endArrow=none;html=1;rounded=0;exitX=1;exitY=0.5;exitDx=0;exitDy=0;entryX=0;entryY=0.5;entryDx=0;entryDy=0;" parent="1" source="yjZYg7hy8Y8F1wDOyGge-7" target="ok7cAUvqmww5mjhx3ZxW-1" edge="1">
          <mxGeometry width="50" height="50" relative="1" as="geometry">
            <mxPoint x="560" y="370" as="sourcePoint" />
            <mxPoint x="630" y="510" as="targetPoint" />
          </mxGeometry>
        </mxCell>
        <mxCell id="ok7cAUvqmww5mjhx3ZxW-3" value="Create A Journal" style="ellipse;whiteSpace=wrap;html=1;" parent="1" vertex="1">
          <mxGeometry x="365" y="410" width="120" height="60" as="geometry" />
        </mxCell>
        <mxCell id="ok7cAUvqmww5mjhx3ZxW-4" value="DeleteAJournal" style="ellipse;whiteSpace=wrap;html=1;" parent="1" vertex="1">
          <mxGeometry x="365" y="580" width="120" height="60" as="geometry" />
        </mxCell>
        <mxCell id="ok7cAUvqmww5mjhx3ZxW-5" value="EditExisting Journal" style="ellipse;whiteSpace=wrap;html=1;" parent="1" vertex="1">
          <mxGeometry x="365" y="490" width="120" height="60" as="geometry" />
        </mxCell>
        <mxCell id="ok7cAUvqmww5mjhx3ZxW-6" value="" style="endArrow=none;html=1;rounded=0;entryX=0;entryY=0.5;entryDx=0;entryDy=0;" parent="1" target="ok7cAUvqmww5mjhx3ZxW-3" edge="1">
          <mxGeometry width="50" height="50" relative="1" as="geometry">
            <mxPoint x="210" y="460" as="sourcePoint" />
            <mxPoint x="310" y="370" as="targetPoint" />
          </mxGeometry>
        </mxCell>
        <mxCell id="ok7cAUvqmww5mjhx3ZxW-7" value="" style="endArrow=none;html=1;rounded=0;entryX=0.025;entryY=0.617;entryDx=0;entryDy=0;entryPerimeter=0;" parent="1" target="ok7cAUvqmww5mjhx3ZxW-5" edge="1">
          <mxGeometry width="50" height="50" relative="1" as="geometry">
            <mxPoint x="210" y="480" as="sourcePoint" />
            <mxPoint x="310" y="450" as="targetPoint" />
          </mxGeometry>
        </mxCell>
        <mxCell id="ok7cAUvqmww5mjhx3ZxW-8" value="" style="endArrow=none;html=1;rounded=0;entryX=0;entryY=0.5;entryDx=0;entryDy=0;" parent="1" target="ok7cAUvqmww5mjhx3ZxW-4" edge="1">
          <mxGeometry width="50" height="50" relative="1" as="geometry">
            <mxPoint x="210" y="500" as="sourcePoint" />
            <mxPoint x="313" y="537" as="targetPoint" />
          </mxGeometry>
        </mxCell>
        <mxCell id="ok7cAUvqmww5mjhx3ZxW-9" value="" style="endArrow=none;html=1;rounded=0;exitX=1;exitY=0.5;exitDx=0;exitDy=0;" parent="1" source="ok7cAUvqmww5mjhx3ZxW-3" edge="1">
          <mxGeometry width="50" height="50" relative="1" as="geometry">
            <mxPoint x="220" y="550" as="sourcePoint" />
            <mxPoint x="620" y="500" as="targetPoint" />
          </mxGeometry>
        </mxCell>
        <mxCell id="ok7cAUvqmww5mjhx3ZxW-10" value="" style="endArrow=none;html=1;rounded=0;exitX=1;exitY=0.5;exitDx=0;exitDy=0;" parent="1" source="ok7cAUvqmww5mjhx3ZxW-5" edge="1">
          <mxGeometry width="50" height="50" relative="1" as="geometry">
            <mxPoint x="495" y="450" as="sourcePoint" />
            <mxPoint x="620" y="500" as="targetPoint" />
          </mxGeometry>
        </mxCell>
        <mxCell id="ok7cAUvqmww5mjhx3ZxW-11" value="" style="endArrow=none;html=1;rounded=0;exitX=1;exitY=0.5;exitDx=0;exitDy=0;" parent="1" source="ok7cAUvqmww5mjhx3ZxW-4" edge="1">
          <mxGeometry width="50" height="50" relative="1" as="geometry">
            <mxPoint x="505" y="460" as="sourcePoint" />
            <mxPoint x="620" y="500" as="targetPoint" />
          </mxGeometry>
        </mxCell>
        <mxCell id="90d-ne9umNljsju4Oq89-1" value="" style="endArrow=none;html=1;rounded=0;exitX=1;exitY=0.5;exitDx=0;exitDy=0;entryX=0;entryY=0.5;entryDx=0;entryDy=0;" parent="1" source="ok7cAUvqmww5mjhx3ZxW-3" target="ok7cAUvqmww5mjhx3ZxW-1" edge="1">
          <mxGeometry width="50" height="50" relative="1" as="geometry">
            <mxPoint x="495" y="620" as="sourcePoint" />
            <mxPoint x="630" y="510" as="targetPoint" />
          </mxGeometry>
        </mxCell>
        <mxCell id="90d-ne9umNljsju4Oq89-2" value="" style="endArrow=none;html=1;rounded=0;exitX=1;exitY=0.5;exitDx=0;exitDy=0;entryX=0;entryY=0.5;entryDx=0;entryDy=0;" parent="1" source="ok7cAUvqmww5mjhx3ZxW-5" target="ok7cAUvqmww5mjhx3ZxW-1" edge="1">
          <mxGeometry width="50" height="50" relative="1" as="geometry">
            <mxPoint x="505" y="630" as="sourcePoint" />
            <mxPoint x="640" y="520" as="targetPoint" />
          </mxGeometry>
        </mxCell>
        <mxCell id="90d-ne9umNljsju4Oq89-3" value="" style="endArrow=none;html=1;rounded=0;exitX=1;exitY=0.5;exitDx=0;exitDy=0;entryX=0;entryY=0.5;entryDx=0;entryDy=0;" parent="1" source="ok7cAUvqmww5mjhx3ZxW-4" target="ok7cAUvqmww5mjhx3ZxW-1" edge="1">
          <mxGeometry width="50" height="50" relative="1" as="geometry">
            <mxPoint x="515" y="640" as="sourcePoint" />
            <mxPoint x="650" y="530" as="targetPoint" />
          </mxGeometry>
        </mxCell>
      </root>
    </mxGraphModel>
  </diagram>
  <diagram id="hiAdN5BLHqKWv6IJAH6V" name="AddJournalEntry">
    <mxGraphModel dx="1434" dy="756" grid="1" gridSize="10" guides="1" tooltips="1" connect="1" arrows="1" fold="1" page="1" pageScale="1" pageWidth="850" pageHeight="1100" math="0" shadow="0">
      <root>
        <mxCell id="0" />
        <mxCell id="1" parent="0" />
        <mxCell id="5BQGpPy-IyQaxQC2PL-q-1" value="&lt;h2&gt;&lt;br&gt;&lt;/h2&gt;" style="rounded=0;whiteSpace=wrap;html=1;align=center;" parent="1" vertex="1">
          <mxGeometry x="285" y="240" width="280" height="540" as="geometry" />
        </mxCell>
        <mxCell id="5BQGpPy-IyQaxQC2PL-q-2" value="Fill Sign Add Journal Form" style="ellipse;whiteSpace=wrap;html=1;" parent="1" vertex="1">
          <mxGeometry x="305" y="350" width="120" height="60" as="geometry" />
        </mxCell>
        <mxCell id="5BQGpPy-IyQaxQC2PL-q-3" value="User&lt;br&gt;" style="shape=umlActor;verticalLabelPosition=bottom;verticalAlign=top;html=1;outlineConnect=0;" parent="1" vertex="1">
          <mxGeometry x="170" y="460" width="30" height="60" as="geometry" />
        </mxCell>
        <mxCell id="5BQGpPy-IyQaxQC2PL-q-4" value="&amp;lt;&amp;lt;actor&amp;gt;&amp;gt;&lt;br&gt;&lt;br&gt;&lt;b&gt;JournalSystem&lt;br&gt;&lt;/b&gt;" style="html=1;align=center;verticalAlign=middle;dashed=0;whiteSpace=wrap;" parent="1" vertex="1">
          <mxGeometry x="620" y="460" width="160" height="70" as="geometry" />
        </mxCell>
        <mxCell id="5BQGpPy-IyQaxQC2PL-q-5" value="" style="endArrow=none;html=1;rounded=0;entryX=0;entryY=0.5;entryDx=0;entryDy=0;" parent="1" target="5BQGpPy-IyQaxQC2PL-q-2" edge="1">
          <mxGeometry width="50" height="50" relative="1" as="geometry">
            <mxPoint x="200" y="450" as="sourcePoint" />
            <mxPoint x="365" y="400" as="targetPoint" />
          </mxGeometry>
        </mxCell>
        <mxCell id="5BQGpPy-IyQaxQC2PL-q-6" value="Add Journal Entry" style="text;html=1;strokeColor=none;fillColor=none;align=center;verticalAlign=middle;whiteSpace=wrap;rounded=0;" parent="1" vertex="1">
          <mxGeometry x="395" y="250" width="60" height="30" as="geometry" />
        </mxCell>
        <mxCell id="5BQGpPy-IyQaxQC2PL-q-7" value="AddEntry" style="ellipse;whiteSpace=wrap;html=1;" parent="1" vertex="1">
          <mxGeometry x="365" y="570" width="120" height="60" as="geometry" />
        </mxCell>
        <mxCell id="5BQGpPy-IyQaxQC2PL-q-8" value="" style="endArrow=none;html=1;rounded=0;entryX=0;entryY=0.5;entryDx=0;entryDy=0;" parent="1" target="5BQGpPy-IyQaxQC2PL-q-7" edge="1">
          <mxGeometry width="50" height="50" relative="1" as="geometry">
            <mxPoint x="210" y="490" as="sourcePoint" />
            <mxPoint x="450" y="400" as="targetPoint" />
          </mxGeometry>
        </mxCell>
        <mxCell id="5BQGpPy-IyQaxQC2PL-q-9" value="Validates Journal Input Details" style="ellipse;whiteSpace=wrap;html=1;" parent="1" vertex="1">
          <mxGeometry x="430" y="410" width="120" height="60" as="geometry" />
        </mxCell>
        <mxCell id="5BQGpPy-IyQaxQC2PL-q-10" value="" style="endArrow=none;html=1;rounded=0;exitX=1;exitY=0.5;exitDx=0;exitDy=0;" parent="1" source="5BQGpPy-IyQaxQC2PL-q-9" edge="1">
          <mxGeometry width="50" height="50" relative="1" as="geometry">
            <mxPoint x="489" y="576" as="sourcePoint" />
            <mxPoint x="620" y="500" as="targetPoint" />
          </mxGeometry>
        </mxCell>
        <mxCell id="23NNuSmNacbQckKMOI9E-1" value="DiscardEntry" style="ellipse;whiteSpace=wrap;html=1;" parent="1" vertex="1">
          <mxGeometry x="365" y="660" width="120" height="60" as="geometry" />
        </mxCell>
        <mxCell id="23NNuSmNacbQckKMOI9E-2" value="" style="endArrow=none;html=1;rounded=0;entryX=0;entryY=0.5;entryDx=0;entryDy=0;" parent="1" target="23NNuSmNacbQckKMOI9E-1" edge="1">
          <mxGeometry width="50" height="50" relative="1" as="geometry">
            <mxPoint x="210" y="530" as="sourcePoint" />
            <mxPoint x="380" y="588" as="targetPoint" />
          </mxGeometry>
        </mxCell>
        <mxCell id="23NNuSmNacbQckKMOI9E-3" value="" style="endArrow=none;html=1;rounded=0;exitX=1;exitY=0.5;exitDx=0;exitDy=0;entryX=-0.012;entryY=0.643;entryDx=0;entryDy=0;entryPerimeter=0;" parent="1" source="5BQGpPy-IyQaxQC2PL-q-7" target="5BQGpPy-IyQaxQC2PL-q-4" edge="1">
          <mxGeometry width="50" height="50" relative="1" as="geometry">
            <mxPoint x="560" y="450" as="sourcePoint" />
            <mxPoint x="630" y="510" as="targetPoint" />
          </mxGeometry>
        </mxCell>
        <mxCell id="23NNuSmNacbQckKMOI9E-4" value="" style="endArrow=none;html=1;rounded=0;exitX=1;exitY=0.5;exitDx=0;exitDy=0;entryX=-0.006;entryY=0.614;entryDx=0;entryDy=0;entryPerimeter=0;" parent="1" source="23NNuSmNacbQckKMOI9E-1" target="5BQGpPy-IyQaxQC2PL-q-4" edge="1">
          <mxGeometry width="50" height="50" relative="1" as="geometry">
            <mxPoint x="480" y="610" as="sourcePoint" />
            <mxPoint x="628" y="515" as="targetPoint" />
          </mxGeometry>
        </mxCell>
        <mxCell id="rXX7ER8A5sKZImyueah1-1" value="&amp;lt;&amp;lt;actor&amp;gt;&amp;gt;&lt;br&gt;&lt;br&gt;&lt;b&gt;Application Database&lt;br&gt;&lt;/b&gt;" style="html=1;align=center;verticalAlign=middle;dashed=0;whiteSpace=wrap;" parent="1" vertex="1">
          <mxGeometry x="620" y="620" width="160" height="70" as="geometry" />
        </mxCell>
        <mxCell id="rXX7ER8A5sKZImyueah1-2" value="" style="endArrow=none;html=1;rounded=0;exitX=1;exitY=0.5;exitDx=0;exitDy=0;" parent="1" source="5BQGpPy-IyQaxQC2PL-q-7" edge="1">
          <mxGeometry width="50" height="50" relative="1" as="geometry">
            <mxPoint x="495" y="610" as="sourcePoint" />
            <mxPoint x="620" y="660" as="targetPoint" />
          </mxGeometry>
        </mxCell>
      </root>
    </mxGraphModel>
  </diagram>
  <diagram id="f03XJkV58ujMXrKZI0SO" name="UpdateProfileInfo">
    <mxGraphModel dx="816" dy="1130" grid="1" gridSize="10" guides="1" tooltips="1" connect="1" arrows="1" fold="1" page="1" pageScale="1" pageWidth="850" pageHeight="1100" math="0" shadow="0">
      <root>
        <mxCell id="0" />
        <mxCell id="1" parent="0" />
        <mxCell id="3vW3K6G94yRJNerGVlUc-1" value="&lt;h2&gt;&lt;br&gt;&lt;/h2&gt;" style="rounded=0;whiteSpace=wrap;html=1;align=center;" parent="1" vertex="1">
          <mxGeometry x="285" y="240" width="280" height="540" as="geometry" />
        </mxCell>
        <mxCell id="3vW3K6G94yRJNerGVlUc-2" value="ClickEditProfile" style="ellipse;whiteSpace=wrap;html=1;" parent="1" vertex="1">
          <mxGeometry x="305" y="350" width="120" height="60" as="geometry" />
        </mxCell>
        <mxCell id="3vW3K6G94yRJNerGVlUc-3" value="User&lt;br&gt;" style="shape=umlActor;verticalLabelPosition=bottom;verticalAlign=top;html=1;outlineConnect=0;" parent="1" vertex="1">
          <mxGeometry x="170" y="460" width="30" height="60" as="geometry" />
        </mxCell>
        <mxCell id="3vW3K6G94yRJNerGVlUc-4" value="&amp;lt;&amp;lt;actor&amp;gt;&amp;gt;&lt;br&gt;&lt;br&gt;&lt;b&gt;Application&lt;br&gt;&lt;/b&gt;" style="html=1;align=center;verticalAlign=middle;dashed=0;whiteSpace=wrap;" parent="1" vertex="1">
          <mxGeometry x="620" y="460" width="160" height="70" as="geometry" />
        </mxCell>
        <mxCell id="3vW3K6G94yRJNerGVlUc-5" value="" style="endArrow=none;html=1;rounded=0;entryX=0;entryY=0.5;entryDx=0;entryDy=0;" parent="1" target="3vW3K6G94yRJNerGVlUc-2" edge="1">
          <mxGeometry width="50" height="50" relative="1" as="geometry">
            <mxPoint x="200" y="450" as="sourcePoint" />
            <mxPoint x="365" y="400" as="targetPoint" />
          </mxGeometry>
        </mxCell>
        <mxCell id="3vW3K6G94yRJNerGVlUc-6" value="Update Profile Info" style="text;html=1;strokeColor=none;fillColor=none;align=center;verticalAlign=middle;whiteSpace=wrap;rounded=0;" parent="1" vertex="1">
          <mxGeometry x="395" y="250" width="60" height="30" as="geometry" />
        </mxCell>
        <mxCell id="3vW3K6G94yRJNerGVlUc-7" value="Save Profile" style="ellipse;whiteSpace=wrap;html=1;" parent="1" vertex="1">
          <mxGeometry x="365" y="570" width="120" height="60" as="geometry" />
        </mxCell>
        <mxCell id="3vW3K6G94yRJNerGVlUc-8" value="" style="endArrow=none;html=1;rounded=0;entryX=0;entryY=0.5;entryDx=0;entryDy=0;" parent="1" target="3vW3K6G94yRJNerGVlUc-7" edge="1">
          <mxGeometry width="50" height="50" relative="1" as="geometry">
            <mxPoint x="210" y="490" as="sourcePoint" />
            <mxPoint x="450" y="400" as="targetPoint" />
          </mxGeometry>
        </mxCell>
        <mxCell id="3vW3K6G94yRJNerGVlUc-9" value="Validates Profile Input Format" style="ellipse;whiteSpace=wrap;html=1;" parent="1" vertex="1">
          <mxGeometry x="430" y="410" width="120" height="60" as="geometry" />
        </mxCell>
        <mxCell id="3vW3K6G94yRJNerGVlUc-10" value="" style="endArrow=none;html=1;rounded=0;exitX=1;exitY=0.5;exitDx=0;exitDy=0;" parent="1" source="3vW3K6G94yRJNerGVlUc-9" edge="1">
          <mxGeometry width="50" height="50" relative="1" as="geometry">
            <mxPoint x="489" y="576" as="sourcePoint" />
            <mxPoint x="620" y="500" as="targetPoint" />
          </mxGeometry>
        </mxCell>
        <mxCell id="3vW3K6G94yRJNerGVlUc-11" value="Discard Changes" style="ellipse;whiteSpace=wrap;html=1;" parent="1" vertex="1">
          <mxGeometry x="365" y="660" width="120" height="60" as="geometry" />
        </mxCell>
        <mxCell id="3vW3K6G94yRJNerGVlUc-12" value="" style="endArrow=none;html=1;rounded=0;entryX=0;entryY=0.5;entryDx=0;entryDy=0;" parent="1" target="3vW3K6G94yRJNerGVlUc-11" edge="1">
          <mxGeometry width="50" height="50" relative="1" as="geometry">
            <mxPoint x="210" y="530" as="sourcePoint" />
            <mxPoint x="380" y="588" as="targetPoint" />
          </mxGeometry>
        </mxCell>
        <mxCell id="3vW3K6G94yRJNerGVlUc-13" value="" style="endArrow=none;html=1;rounded=0;exitX=1;exitY=0.5;exitDx=0;exitDy=0;entryX=-0.012;entryY=0.643;entryDx=0;entryDy=0;entryPerimeter=0;" parent="1" source="3vW3K6G94yRJNerGVlUc-7" target="3vW3K6G94yRJNerGVlUc-4" edge="1">
          <mxGeometry width="50" height="50" relative="1" as="geometry">
            <mxPoint x="560" y="450" as="sourcePoint" />
            <mxPoint x="630" y="510" as="targetPoint" />
          </mxGeometry>
        </mxCell>
        <mxCell id="3vW3K6G94yRJNerGVlUc-14" value="" style="endArrow=none;html=1;rounded=0;exitX=1;exitY=0.5;exitDx=0;exitDy=0;entryX=-0.006;entryY=0.614;entryDx=0;entryDy=0;entryPerimeter=0;" parent="1" source="3vW3K6G94yRJNerGVlUc-11" target="3vW3K6G94yRJNerGVlUc-4" edge="1">
          <mxGeometry width="50" height="50" relative="1" as="geometry">
            <mxPoint x="480" y="610" as="sourcePoint" />
            <mxPoint x="628" y="515" as="targetPoint" />
          </mxGeometry>
        </mxCell>
        <mxCell id="iICQnMcG-XdrTJVDjN1Q-1" value="&amp;lt;&amp;lt;actor&amp;gt;&amp;gt;&lt;br&gt;&lt;br&gt;&lt;b&gt;Users&#39;&lt;br&gt;&amp;nbsp;Database&lt;br&gt;&lt;/b&gt;" style="html=1;align=center;verticalAlign=middle;dashed=0;whiteSpace=wrap;" parent="1" vertex="1">
          <mxGeometry x="620" y="560" width="160" height="70" as="geometry" />
        </mxCell>
        <mxCell id="iICQnMcG-XdrTJVDjN1Q-2" value="" style="endArrow=none;html=1;rounded=0;exitX=1;exitY=0.5;exitDx=0;exitDy=0;entryX=0;entryY=0.5;entryDx=0;entryDy=0;" parent="1" source="3vW3K6G94yRJNerGVlUc-7" target="iICQnMcG-XdrTJVDjN1Q-1" edge="1">
          <mxGeometry width="50" height="50" relative="1" as="geometry">
            <mxPoint x="495" y="610" as="sourcePoint" />
            <mxPoint x="628" y="515" as="targetPoint" />
          </mxGeometry>
        </mxCell>
      </root>
    </mxGraphModel>
  </diagram>
  <diagram id="syvI4yne5v7e09DgSsGG" name="DeleteProfile">
    <mxGraphModel dx="816" dy="1130" grid="1" gridSize="10" guides="1" tooltips="1" connect="1" arrows="1" fold="1" page="1" pageScale="1" pageWidth="850" pageHeight="1100" math="0" shadow="0">
      <root>
        <mxCell id="0" />
        <mxCell id="1" parent="0" />
        <mxCell id="q-IElKBcz1dvnEJuJM00-1" value="&lt;h2&gt;&lt;br&gt;&lt;/h2&gt;" style="rounded=0;whiteSpace=wrap;html=1;align=center;" parent="1" vertex="1">
          <mxGeometry x="285" y="240" width="280" height="540" as="geometry" />
        </mxCell>
        <mxCell id="q-IElKBcz1dvnEJuJM00-2" value="ClickDeleteProfile" style="ellipse;whiteSpace=wrap;html=1;" parent="1" vertex="1">
          <mxGeometry x="305" y="350" width="120" height="60" as="geometry" />
        </mxCell>
        <mxCell id="q-IElKBcz1dvnEJuJM00-3" value="User&lt;br&gt;" style="shape=umlActor;verticalLabelPosition=bottom;verticalAlign=top;html=1;outlineConnect=0;" parent="1" vertex="1">
          <mxGeometry x="170" y="460" width="30" height="60" as="geometry" />
        </mxCell>
        <mxCell id="q-IElKBcz1dvnEJuJM00-4" value="&amp;lt;&amp;lt;actor&amp;gt;&amp;gt;&lt;br&gt;&lt;br&gt;&lt;b&gt;Application&lt;br&gt;&lt;/b&gt;" style="html=1;align=center;verticalAlign=middle;dashed=0;whiteSpace=wrap;" parent="1" vertex="1">
          <mxGeometry x="620" y="460" width="160" height="70" as="geometry" />
        </mxCell>
        <mxCell id="q-IElKBcz1dvnEJuJM00-5" value="" style="endArrow=none;html=1;rounded=0;entryX=0;entryY=0.5;entryDx=0;entryDy=0;" parent="1" target="q-IElKBcz1dvnEJuJM00-2" edge="1">
          <mxGeometry width="50" height="50" relative="1" as="geometry">
            <mxPoint x="200" y="450" as="sourcePoint" />
            <mxPoint x="365" y="400" as="targetPoint" />
          </mxGeometry>
        </mxCell>
        <mxCell id="q-IElKBcz1dvnEJuJM00-6" value="Delete Profile Info" style="text;html=1;strokeColor=none;fillColor=none;align=center;verticalAlign=middle;whiteSpace=wrap;rounded=0;" parent="1" vertex="1">
          <mxGeometry x="395" y="250" width="60" height="30" as="geometry" />
        </mxCell>
        <mxCell id="q-IElKBcz1dvnEJuJM00-7" value="Delete Profile" style="ellipse;whiteSpace=wrap;html=1;" parent="1" vertex="1">
          <mxGeometry x="365" y="570" width="120" height="60" as="geometry" />
        </mxCell>
        <mxCell id="q-IElKBcz1dvnEJuJM00-8" value="" style="endArrow=none;html=1;rounded=0;entryX=0;entryY=0.5;entryDx=0;entryDy=0;" parent="1" target="q-IElKBcz1dvnEJuJM00-7" edge="1">
          <mxGeometry width="50" height="50" relative="1" as="geometry">
            <mxPoint x="210" y="490" as="sourcePoint" />
            <mxPoint x="450" y="400" as="targetPoint" />
          </mxGeometry>
        </mxCell>
        <mxCell id="q-IElKBcz1dvnEJuJM00-9" value="Validates User Credentials" style="ellipse;whiteSpace=wrap;html=1;" parent="1" vertex="1">
          <mxGeometry x="430" y="410" width="120" height="60" as="geometry" />
        </mxCell>
        <mxCell id="q-IElKBcz1dvnEJuJM00-10" value="" style="endArrow=none;html=1;rounded=0;exitX=1;exitY=0.5;exitDx=0;exitDy=0;" parent="1" source="q-IElKBcz1dvnEJuJM00-9" edge="1">
          <mxGeometry width="50" height="50" relative="1" as="geometry">
            <mxPoint x="489" y="576" as="sourcePoint" />
            <mxPoint x="620" y="500" as="targetPoint" />
          </mxGeometry>
        </mxCell>
        <mxCell id="q-IElKBcz1dvnEJuJM00-11" value="Cancel" style="ellipse;whiteSpace=wrap;html=1;" parent="1" vertex="1">
          <mxGeometry x="365" y="660" width="120" height="60" as="geometry" />
        </mxCell>
        <mxCell id="q-IElKBcz1dvnEJuJM00-12" value="" style="endArrow=none;html=1;rounded=0;entryX=0;entryY=0.5;entryDx=0;entryDy=0;" parent="1" target="q-IElKBcz1dvnEJuJM00-11" edge="1">
          <mxGeometry width="50" height="50" relative="1" as="geometry">
            <mxPoint x="210" y="530" as="sourcePoint" />
            <mxPoint x="380" y="588" as="targetPoint" />
          </mxGeometry>
        </mxCell>
        <mxCell id="q-IElKBcz1dvnEJuJM00-13" value="" style="endArrow=none;html=1;rounded=0;exitX=1;exitY=0.5;exitDx=0;exitDy=0;entryX=-0.012;entryY=0.643;entryDx=0;entryDy=0;entryPerimeter=0;" parent="1" source="q-IElKBcz1dvnEJuJM00-7" target="q-IElKBcz1dvnEJuJM00-4" edge="1">
          <mxGeometry width="50" height="50" relative="1" as="geometry">
            <mxPoint x="560" y="450" as="sourcePoint" />
            <mxPoint x="630" y="510" as="targetPoint" />
          </mxGeometry>
        </mxCell>
        <mxCell id="q-IElKBcz1dvnEJuJM00-14" value="" style="endArrow=none;html=1;rounded=0;exitX=1;exitY=0.5;exitDx=0;exitDy=0;entryX=-0.006;entryY=0.614;entryDx=0;entryDy=0;entryPerimeter=0;" parent="1" source="q-IElKBcz1dvnEJuJM00-11" target="q-IElKBcz1dvnEJuJM00-4" edge="1">
          <mxGeometry width="50" height="50" relative="1" as="geometry">
            <mxPoint x="480" y="610" as="sourcePoint" />
            <mxPoint x="628" y="515" as="targetPoint" />
          </mxGeometry>
        </mxCell>
        <mxCell id="q-IElKBcz1dvnEJuJM00-15" value="&amp;lt;&amp;lt;actor&amp;gt;&amp;gt;&lt;br&gt;&lt;br&gt;&lt;b&gt;Users&#39;&lt;br&gt;&amp;nbsp;Database&lt;br&gt;&lt;/b&gt;" style="html=1;align=center;verticalAlign=middle;dashed=0;whiteSpace=wrap;" parent="1" vertex="1">
          <mxGeometry x="620" y="560" width="160" height="70" as="geometry" />
        </mxCell>
        <mxCell id="q-IElKBcz1dvnEJuJM00-16" value="" style="endArrow=none;html=1;rounded=0;exitX=1;exitY=0.5;exitDx=0;exitDy=0;entryX=0;entryY=0.5;entryDx=0;entryDy=0;" parent="1" source="q-IElKBcz1dvnEJuJM00-7" target="q-IElKBcz1dvnEJuJM00-15" edge="1">
          <mxGeometry width="50" height="50" relative="1" as="geometry">
            <mxPoint x="495" y="610" as="sourcePoint" />
            <mxPoint x="628" y="515" as="targetPoint" />
          </mxGeometry>
        </mxCell>
      </root>
    </mxGraphModel>
  </diagram>
  <diagram id="LrBEghr8bvdIm_a-SQlY" name="ForumPage">
    <mxGraphModel dx="584" dy="756" grid="1" gridSize="10" guides="1" tooltips="1" connect="1" arrows="1" fold="1" page="1" pageScale="1" pageWidth="850" pageHeight="1100" math="0" shadow="0">
      <root>
        <mxCell id="0" />
        <mxCell id="1" parent="0" />
        <mxCell id="O6PsdpAzO5-gguPWhIca-1" value="&lt;h2&gt;&lt;br&gt;&lt;/h2&gt;" style="rounded=0;whiteSpace=wrap;html=1;align=center;" vertex="1" parent="1">
          <mxGeometry x="1145" y="180" width="280" height="540" as="geometry" />
        </mxCell>
        <mxCell id="O6PsdpAzO5-gguPWhIca-2" value="ViewAThread" style="ellipse;whiteSpace=wrap;html=1;" vertex="1" parent="1">
          <mxGeometry x="1225" y="260" width="120" height="60" as="geometry" />
        </mxCell>
        <mxCell id="O6PsdpAzO5-gguPWhIca-3" value="User&lt;br&gt;" style="shape=umlActor;verticalLabelPosition=bottom;verticalAlign=top;html=1;outlineConnect=0;" vertex="1" parent="1">
          <mxGeometry x="1030" y="400" width="30" height="60" as="geometry" />
        </mxCell>
        <mxCell id="O6PsdpAzO5-gguPWhIca-4" value="&amp;lt;&amp;lt;actor&amp;gt;&amp;gt;&lt;br&gt;&lt;br&gt;&lt;b&gt;MessageForumSystem&lt;br&gt;&lt;/b&gt;" style="html=1;align=center;verticalAlign=middle;dashed=0;whiteSpace=wrap;" vertex="1" parent="1">
          <mxGeometry x="1510" y="385" width="160" height="70" as="geometry" />
        </mxCell>
        <mxCell id="O6PsdpAzO5-gguPWhIca-5" value="" style="endArrow=none;html=1;rounded=0;entryX=0;entryY=0.5;entryDx=0;entryDy=0;" edge="1" parent="1" target="O6PsdpAzO5-gguPWhIca-2">
          <mxGeometry width="50" height="50" relative="1" as="geometry">
            <mxPoint x="1060" y="390" as="sourcePoint" />
            <mxPoint x="1225" y="340" as="targetPoint" />
          </mxGeometry>
        </mxCell>
        <mxCell id="O6PsdpAzO5-gguPWhIca-6" value="Forum Page" style="text;html=1;strokeColor=none;fillColor=none;align=center;verticalAlign=middle;whiteSpace=wrap;rounded=0;" vertex="1" parent="1">
          <mxGeometry x="1255" y="190" width="60" height="30" as="geometry" />
        </mxCell>
        <mxCell id="O6PsdpAzO5-gguPWhIca-7" value="SearForAThread" style="ellipse;whiteSpace=wrap;html=1;" vertex="1" parent="1">
          <mxGeometry x="1225" y="610" width="120" height="60" as="geometry" />
        </mxCell>
        <mxCell id="O6PsdpAzO5-gguPWhIca-8" value="" style="endArrow=none;html=1;rounded=0;entryX=0;entryY=0.5;entryDx=0;entryDy=0;" edge="1" parent="1" target="O6PsdpAzO5-gguPWhIca-7">
          <mxGeometry width="50" height="50" relative="1" as="geometry">
            <mxPoint x="1070" y="480" as="sourcePoint" />
            <mxPoint x="1310" y="340" as="targetPoint" />
          </mxGeometry>
        </mxCell>
        <mxCell id="O6PsdpAzO5-gguPWhIca-9" value="" style="endArrow=none;html=1;rounded=0;exitX=1;exitY=0.5;exitDx=0;exitDy=0;entryX=0;entryY=1;entryDx=0;entryDy=0;" edge="1" parent="1" source="O6PsdpAzO5-gguPWhIca-7" target="O6PsdpAzO5-gguPWhIca-4">
          <mxGeometry width="50" height="50" relative="1" as="geometry">
            <mxPoint x="1420" y="310" as="sourcePoint" />
            <mxPoint x="1480" y="595" as="targetPoint" />
          </mxGeometry>
        </mxCell>
        <mxCell id="O6PsdpAzO5-gguPWhIca-10" value="CreateForum Thread" style="ellipse;whiteSpace=wrap;html=1;" vertex="1" parent="1">
          <mxGeometry x="1225" y="400" width="120" height="60" as="geometry" />
        </mxCell>
        <mxCell id="O6PsdpAzO5-gguPWhIca-11" value="" style="endArrow=none;html=1;rounded=0;entryX=0;entryY=0.5;entryDx=0;entryDy=0;exitX=1;exitY=0.3333333333333333;exitDx=0;exitDy=0;exitPerimeter=0;" edge="1" parent="1" source="O6PsdpAzO5-gguPWhIca-3" target="O6PsdpAzO5-gguPWhIca-10">
          <mxGeometry width="50" height="50" relative="1" as="geometry">
            <mxPoint x="1070" y="400" as="sourcePoint" />
            <mxPoint x="1170" y="310" as="targetPoint" />
          </mxGeometry>
        </mxCell>
        <mxCell id="O6PsdpAzO5-gguPWhIca-12" value="" style="endArrow=none;html=1;rounded=0;exitX=1;exitY=0.5;exitDx=0;exitDy=0;entryX=-0.019;entryY=0.414;entryDx=0;entryDy=0;entryPerimeter=0;" edge="1" parent="1" source="O6PsdpAzO5-gguPWhIca-10" target="O6PsdpAzO5-gguPWhIca-4">
          <mxGeometry width="50" height="50" relative="1" as="geometry">
            <mxPoint x="1080" y="490" as="sourcePoint" />
            <mxPoint x="1480" y="440" as="targetPoint" />
          </mxGeometry>
        </mxCell>
        <mxCell id="O6PsdpAzO5-gguPWhIca-13" value="" style="endArrow=none;html=1;rounded=0;exitX=1;exitY=0.5;exitDx=0;exitDy=0;entryX=0;entryY=0.5;entryDx=0;entryDy=0;" edge="1" parent="1" source="O6PsdpAzO5-gguPWhIca-2" target="O6PsdpAzO5-gguPWhIca-4">
          <mxGeometry width="50" height="50" relative="1" as="geometry">
            <mxPoint x="1345" y="550" as="sourcePoint" />
            <mxPoint x="1480" y="440" as="targetPoint" />
          </mxGeometry>
        </mxCell>
        <mxCell id="O6PsdpAzO5-gguPWhIca-14" value="Use Case Diagram" style="text;html=1;strokeColor=default;fillColor=none;align=center;verticalAlign=middle;whiteSpace=wrap;rounded=0;" vertex="1" parent="1">
          <mxGeometry x="1217.5" y="40" width="135" height="80" as="geometry" />
        </mxCell>
      </root>
    </mxGraphModel>
  </diagram>
  <diagram id="d1Eg6O2pD8KW8MVu-h5_" name="ViewThread">
    <mxGraphModel dx="1434" dy="756" grid="1" gridSize="10" guides="1" tooltips="1" connect="1" arrows="1" fold="1" page="1" pageScale="1" pageWidth="850" pageHeight="1100" math="0" shadow="0">
      <root>
        <mxCell id="0" />
        <mxCell id="1" parent="0" />
        <mxCell id="DDGcsIy_FaRMIGZPimcl-1" value="&lt;h2&gt;&lt;br&gt;&lt;/h2&gt;" style="rounded=0;whiteSpace=wrap;html=1;align=center;" parent="1" vertex="1">
          <mxGeometry x="285" y="240" width="280" height="540" as="geometry" />
        </mxCell>
        <mxCell id="DDGcsIy_FaRMIGZPimcl-2" value="ViewAThreadPage" style="ellipse;whiteSpace=wrap;html=1;" parent="1" vertex="1">
          <mxGeometry x="300" y="330" width="120" height="60" as="geometry" />
        </mxCell>
        <mxCell id="DDGcsIy_FaRMIGZPimcl-3" value="User&lt;br&gt;" style="shape=umlActor;verticalLabelPosition=bottom;verticalAlign=top;html=1;outlineConnect=0;" parent="1" vertex="1">
          <mxGeometry x="170" y="460" width="30" height="60" as="geometry" />
        </mxCell>
        <mxCell id="DDGcsIy_FaRMIGZPimcl-4" value="&amp;lt;&amp;lt;actor&amp;gt;&amp;gt;&lt;br&gt;&lt;br&gt;&lt;b&gt;Application&lt;br&gt;&lt;/b&gt;" style="html=1;align=center;verticalAlign=middle;dashed=0;whiteSpace=wrap;" parent="1" vertex="1">
          <mxGeometry x="620" y="460" width="160" height="70" as="geometry" />
        </mxCell>
        <mxCell id="DDGcsIy_FaRMIGZPimcl-5" value="" style="endArrow=none;html=1;rounded=0;entryX=0;entryY=0.5;entryDx=0;entryDy=0;" parent="1" target="DDGcsIy_FaRMIGZPimcl-2" edge="1">
          <mxGeometry width="50" height="50" relative="1" as="geometry">
            <mxPoint x="200" y="450" as="sourcePoint" />
            <mxPoint x="365" y="400" as="targetPoint" />
          </mxGeometry>
        </mxCell>
        <mxCell id="DDGcsIy_FaRMIGZPimcl-6" value="ViewThread" style="text;html=1;strokeColor=none;fillColor=none;align=center;verticalAlign=middle;whiteSpace=wrap;rounded=0;" parent="1" vertex="1">
          <mxGeometry x="395" y="250" width="60" height="30" as="geometry" />
        </mxCell>
        <mxCell id="DDGcsIy_FaRMIGZPimcl-7" value="SearchForA Reply Thread" style="ellipse;whiteSpace=wrap;html=1;" parent="1" vertex="1">
          <mxGeometry x="380" y="590" width="120" height="60" as="geometry" />
        </mxCell>
        <mxCell id="DDGcsIy_FaRMIGZPimcl-8" value="" style="endArrow=none;html=1;rounded=0;entryX=0;entryY=0.5;entryDx=0;entryDy=0;" parent="1" target="DDGcsIy_FaRMIGZPimcl-7" edge="1">
          <mxGeometry width="50" height="50" relative="1" as="geometry">
            <mxPoint x="210" y="540" as="sourcePoint" />
            <mxPoint x="450" y="400" as="targetPoint" />
          </mxGeometry>
        </mxCell>
        <mxCell id="DDGcsIy_FaRMIGZPimcl-9" value="ShowDetailed ThreadPage" style="ellipse;whiteSpace=wrap;html=1;" parent="1" vertex="1">
          <mxGeometry x="430" y="330" width="120" height="60" as="geometry" />
        </mxCell>
        <mxCell id="DDGcsIy_FaRMIGZPimcl-10" value="" style="endArrow=none;html=1;rounded=0;exitX=1;exitY=0.5;exitDx=0;exitDy=0;" parent="1" source="DDGcsIy_FaRMIGZPimcl-9" edge="1">
          <mxGeometry width="50" height="50" relative="1" as="geometry">
            <mxPoint x="489" y="576" as="sourcePoint" />
            <mxPoint x="620" y="500" as="targetPoint" />
          </mxGeometry>
        </mxCell>
        <mxCell id="DDGcsIy_FaRMIGZPimcl-11" value="&amp;lt;&amp;lt;actor&amp;gt;&amp;gt;&lt;br&gt;&lt;br&gt;&lt;b&gt;Application Database&lt;br&gt;&lt;/b&gt;" style="html=1;align=center;verticalAlign=middle;dashed=0;whiteSpace=wrap;" parent="1" vertex="1">
          <mxGeometry x="620" y="620" width="160" height="70" as="geometry" />
        </mxCell>
        <mxCell id="DDGcsIy_FaRMIGZPimcl-12" value="" style="endArrow=none;html=1;rounded=0;exitX=1;exitY=0.5;exitDx=0;exitDy=0;entryX=0;entryY=0.5;entryDx=0;entryDy=0;" parent="1" source="DDGcsIy_FaRMIGZPimcl-7" target="DDGcsIy_FaRMIGZPimcl-11" edge="1">
          <mxGeometry width="50" height="50" relative="1" as="geometry">
            <mxPoint x="560" y="370" as="sourcePoint" />
            <mxPoint x="630" y="510" as="targetPoint" />
          </mxGeometry>
        </mxCell>
        <mxCell id="DDGcsIy_FaRMIGZPimcl-13" value="CreateForum Reply Thread" style="ellipse;whiteSpace=wrap;html=1;" parent="1" vertex="1">
          <mxGeometry x="380" y="470" width="120" height="60" as="geometry" />
        </mxCell>
        <mxCell id="DDGcsIy_FaRMIGZPimcl-16" value="" style="endArrow=none;html=1;rounded=0;entryX=0;entryY=0.5;entryDx=0;entryDy=0;" parent="1" target="DDGcsIy_FaRMIGZPimcl-13" edge="1">
          <mxGeometry width="50" height="50" relative="1" as="geometry">
            <mxPoint x="210" y="460" as="sourcePoint" />
            <mxPoint x="310" y="370" as="targetPoint" />
          </mxGeometry>
        </mxCell>
        <mxCell id="DDGcsIy_FaRMIGZPimcl-19" value="" style="endArrow=none;html=1;rounded=0;exitX=1;exitY=0.5;exitDx=0;exitDy=0;" parent="1" source="DDGcsIy_FaRMIGZPimcl-13" edge="1">
          <mxGeometry width="50" height="50" relative="1" as="geometry">
            <mxPoint x="220" y="550" as="sourcePoint" />
            <mxPoint x="620" y="500" as="targetPoint" />
          </mxGeometry>
        </mxCell>
        <mxCell id="DDGcsIy_FaRMIGZPimcl-22" value="" style="endArrow=none;html=1;rounded=0;exitX=1;exitY=0.5;exitDx=0;exitDy=0;entryX=0;entryY=0.5;entryDx=0;entryDy=0;" parent="1" source="DDGcsIy_FaRMIGZPimcl-13" target="DDGcsIy_FaRMIGZPimcl-11" edge="1">
          <mxGeometry width="50" height="50" relative="1" as="geometry">
            <mxPoint x="495" y="620" as="sourcePoint" />
            <mxPoint x="630" y="510" as="targetPoint" />
          </mxGeometry>
        </mxCell>
      </root>
    </mxGraphModel>
  </diagram>
  <diagram id="LJwZHMJJF-2UDwXcHpt1" name="ReplyToThread">
    <mxGraphModel dx="816" dy="1130" grid="1" gridSize="10" guides="1" tooltips="1" connect="1" arrows="1" fold="1" page="1" pageScale="1" pageWidth="850" pageHeight="1100" math="0" shadow="0">
      <root>
        <mxCell id="0" />
        <mxCell id="1" parent="0" />
        <mxCell id="05LEE3RQi725ZtS9FT3y-1" value="&lt;h2&gt;&lt;br&gt;&lt;/h2&gt;" style="rounded=0;whiteSpace=wrap;html=1;align=center;" vertex="1" parent="1">
          <mxGeometry x="285" y="240" width="280" height="540" as="geometry" />
        </mxCell>
        <mxCell id="05LEE3RQi725ZtS9FT3y-2" value="Fill Reply Thread Forum" style="ellipse;whiteSpace=wrap;html=1;" vertex="1" parent="1">
          <mxGeometry x="305" y="350" width="120" height="60" as="geometry" />
        </mxCell>
        <mxCell id="05LEE3RQi725ZtS9FT3y-3" value="User&lt;br&gt;" style="shape=umlActor;verticalLabelPosition=bottom;verticalAlign=top;html=1;outlineConnect=0;" vertex="1" parent="1">
          <mxGeometry x="170" y="460" width="30" height="60" as="geometry" />
        </mxCell>
        <mxCell id="05LEE3RQi725ZtS9FT3y-4" value="&amp;lt;&amp;lt;actor&amp;gt;&amp;gt;&lt;br&gt;&lt;br&gt;&lt;b&gt;Application&lt;br&gt;&lt;/b&gt;" style="html=1;align=center;verticalAlign=middle;dashed=0;whiteSpace=wrap;" vertex="1" parent="1">
          <mxGeometry x="620" y="460" width="160" height="70" as="geometry" />
        </mxCell>
        <mxCell id="05LEE3RQi725ZtS9FT3y-5" value="" style="endArrow=none;html=1;rounded=0;entryX=0;entryY=0.5;entryDx=0;entryDy=0;" edge="1" parent="1" target="05LEE3RQi725ZtS9FT3y-2">
          <mxGeometry width="50" height="50" relative="1" as="geometry">
            <mxPoint x="200" y="450" as="sourcePoint" />
            <mxPoint x="365" y="400" as="targetPoint" />
          </mxGeometry>
        </mxCell>
        <mxCell id="05LEE3RQi725ZtS9FT3y-6" value="ReplyToThread" style="text;html=1;strokeColor=none;fillColor=none;align=center;verticalAlign=middle;whiteSpace=wrap;rounded=0;" vertex="1" parent="1">
          <mxGeometry x="388" y="250" width="75" height="30" as="geometry" />
        </mxCell>
        <mxCell id="05LEE3RQi725ZtS9FT3y-7" value="AddReply" style="ellipse;whiteSpace=wrap;html=1;" vertex="1" parent="1">
          <mxGeometry x="365" y="570" width="120" height="60" as="geometry" />
        </mxCell>
        <mxCell id="05LEE3RQi725ZtS9FT3y-8" value="" style="endArrow=none;html=1;rounded=0;entryX=0;entryY=0.5;entryDx=0;entryDy=0;" edge="1" parent="1" target="05LEE3RQi725ZtS9FT3y-7">
          <mxGeometry width="50" height="50" relative="1" as="geometry">
            <mxPoint x="210" y="490" as="sourcePoint" />
            <mxPoint x="450" y="400" as="targetPoint" />
          </mxGeometry>
        </mxCell>
        <mxCell id="05LEE3RQi725ZtS9FT3y-9" value="Validates Reply Thread Input Details" style="ellipse;whiteSpace=wrap;html=1;" vertex="1" parent="1">
          <mxGeometry x="430" y="410" width="120" height="60" as="geometry" />
        </mxCell>
        <mxCell id="05LEE3RQi725ZtS9FT3y-10" value="" style="endArrow=none;html=1;rounded=0;exitX=1;exitY=0.5;exitDx=0;exitDy=0;" edge="1" parent="1" source="05LEE3RQi725ZtS9FT3y-9">
          <mxGeometry width="50" height="50" relative="1" as="geometry">
            <mxPoint x="489" y="576" as="sourcePoint" />
            <mxPoint x="620" y="500" as="targetPoint" />
          </mxGeometry>
        </mxCell>
        <mxCell id="05LEE3RQi725ZtS9FT3y-11" value="DiscardReply" style="ellipse;whiteSpace=wrap;html=1;" vertex="1" parent="1">
          <mxGeometry x="365" y="660" width="120" height="60" as="geometry" />
        </mxCell>
        <mxCell id="05LEE3RQi725ZtS9FT3y-12" value="" style="endArrow=none;html=1;rounded=0;entryX=0;entryY=0.5;entryDx=0;entryDy=0;" edge="1" parent="1" target="05LEE3RQi725ZtS9FT3y-11">
          <mxGeometry width="50" height="50" relative="1" as="geometry">
            <mxPoint x="210" y="530" as="sourcePoint" />
            <mxPoint x="380" y="588" as="targetPoint" />
          </mxGeometry>
        </mxCell>
        <mxCell id="05LEE3RQi725ZtS9FT3y-13" value="" style="endArrow=none;html=1;rounded=0;exitX=1;exitY=0.5;exitDx=0;exitDy=0;entryX=-0.012;entryY=0.643;entryDx=0;entryDy=0;entryPerimeter=0;" edge="1" parent="1" source="05LEE3RQi725ZtS9FT3y-7" target="05LEE3RQi725ZtS9FT3y-4">
          <mxGeometry width="50" height="50" relative="1" as="geometry">
            <mxPoint x="560" y="450" as="sourcePoint" />
            <mxPoint x="630" y="510" as="targetPoint" />
          </mxGeometry>
        </mxCell>
        <mxCell id="05LEE3RQi725ZtS9FT3y-14" value="" style="endArrow=none;html=1;rounded=0;exitX=1;exitY=0.5;exitDx=0;exitDy=0;entryX=-0.006;entryY=0.614;entryDx=0;entryDy=0;entryPerimeter=0;" edge="1" parent="1" source="05LEE3RQi725ZtS9FT3y-11" target="05LEE3RQi725ZtS9FT3y-4">
          <mxGeometry width="50" height="50" relative="1" as="geometry">
            <mxPoint x="480" y="610" as="sourcePoint" />
            <mxPoint x="628" y="515" as="targetPoint" />
          </mxGeometry>
        </mxCell>
        <mxCell id="05LEE3RQi725ZtS9FT3y-15" value="&amp;lt;&amp;lt;actor&amp;gt;&amp;gt;&lt;br&gt;&lt;br&gt;&lt;b&gt;Application Database&lt;br&gt;&lt;/b&gt;" style="html=1;align=center;verticalAlign=middle;dashed=0;whiteSpace=wrap;" vertex="1" parent="1">
          <mxGeometry x="620" y="620" width="160" height="70" as="geometry" />
        </mxCell>
        <mxCell id="05LEE3RQi725ZtS9FT3y-16" value="" style="endArrow=none;html=1;rounded=0;exitX=1;exitY=0.5;exitDx=0;exitDy=0;" edge="1" parent="1" source="05LEE3RQi725ZtS9FT3y-7">
          <mxGeometry width="50" height="50" relative="1" as="geometry">
            <mxPoint x="495" y="610" as="sourcePoint" />
            <mxPoint x="620" y="660" as="targetPoint" />
          </mxGeometry>
        </mxCell>
      </root>
    </mxGraphModel>
  </diagram>
  <diagram id="PxH_PDECW-Ds_RgtLka5" name="CreateForumThread">
    <mxGraphModel dx="816" dy="1130" grid="1" gridSize="10" guides="1" tooltips="1" connect="1" arrows="1" fold="1" page="1" pageScale="1" pageWidth="850" pageHeight="1100" math="0" shadow="0">
      <root>
        <mxCell id="0" />
        <mxCell id="1" parent="0" />
        <mxCell id="w3mqnWYTgWvGElsCUYTH-1" value="&lt;h2&gt;&lt;br&gt;&lt;/h2&gt;" style="rounded=0;whiteSpace=wrap;html=1;align=center;" vertex="1" parent="1">
          <mxGeometry x="285" y="240" width="280" height="540" as="geometry" />
        </mxCell>
        <mxCell id="w3mqnWYTgWvGElsCUYTH-2" value="Fill new Forum Thread" style="ellipse;whiteSpace=wrap;html=1;" vertex="1" parent="1">
          <mxGeometry x="305" y="350" width="120" height="60" as="geometry" />
        </mxCell>
        <mxCell id="w3mqnWYTgWvGElsCUYTH-3" value="User&lt;br&gt;" style="shape=umlActor;verticalLabelPosition=bottom;verticalAlign=top;html=1;outlineConnect=0;" vertex="1" parent="1">
          <mxGeometry x="170" y="460" width="30" height="60" as="geometry" />
        </mxCell>
        <mxCell id="w3mqnWYTgWvGElsCUYTH-4" value="&amp;lt;&amp;lt;actor&amp;gt;&amp;gt;&lt;br&gt;&lt;br&gt;&lt;b&gt;Application&lt;br&gt;&lt;/b&gt;" style="html=1;align=center;verticalAlign=middle;dashed=0;whiteSpace=wrap;" vertex="1" parent="1">
          <mxGeometry x="620" y="460" width="160" height="70" as="geometry" />
        </mxCell>
        <mxCell id="w3mqnWYTgWvGElsCUYTH-5" value="" style="endArrow=none;html=1;rounded=0;entryX=0;entryY=0.5;entryDx=0;entryDy=0;" edge="1" parent="1" target="w3mqnWYTgWvGElsCUYTH-2">
          <mxGeometry width="50" height="50" relative="1" as="geometry">
            <mxPoint x="200" y="450" as="sourcePoint" />
            <mxPoint x="365" y="400" as="targetPoint" />
          </mxGeometry>
        </mxCell>
        <mxCell id="w3mqnWYTgWvGElsCUYTH-6" value="CreateForumThread" style="text;html=1;strokeColor=none;fillColor=none;align=center;verticalAlign=middle;whiteSpace=wrap;rounded=0;" vertex="1" parent="1">
          <mxGeometry x="388" y="250" width="75" height="30" as="geometry" />
        </mxCell>
        <mxCell id="w3mqnWYTgWvGElsCUYTH-7" value="AddThread" style="ellipse;whiteSpace=wrap;html=1;" vertex="1" parent="1">
          <mxGeometry x="365" y="570" width="120" height="60" as="geometry" />
        </mxCell>
        <mxCell id="w3mqnWYTgWvGElsCUYTH-8" value="" style="endArrow=none;html=1;rounded=0;entryX=0;entryY=0.5;entryDx=0;entryDy=0;" edge="1" parent="1" target="w3mqnWYTgWvGElsCUYTH-7">
          <mxGeometry width="50" height="50" relative="1" as="geometry">
            <mxPoint x="210" y="490" as="sourcePoint" />
            <mxPoint x="450" y="400" as="targetPoint" />
          </mxGeometry>
        </mxCell>
        <mxCell id="w3mqnWYTgWvGElsCUYTH-9" value="Validates New Thread Input Details" style="ellipse;whiteSpace=wrap;html=1;" vertex="1" parent="1">
          <mxGeometry x="430" y="410" width="120" height="60" as="geometry" />
        </mxCell>
        <mxCell id="w3mqnWYTgWvGElsCUYTH-10" value="" style="endArrow=none;html=1;rounded=0;exitX=1;exitY=0.5;exitDx=0;exitDy=0;" edge="1" parent="1" source="w3mqnWYTgWvGElsCUYTH-9">
          <mxGeometry width="50" height="50" relative="1" as="geometry">
            <mxPoint x="489" y="576" as="sourcePoint" />
            <mxPoint x="620" y="500" as="targetPoint" />
          </mxGeometry>
        </mxCell>
        <mxCell id="w3mqnWYTgWvGElsCUYTH-11" value="DiscardThread" style="ellipse;whiteSpace=wrap;html=1;" vertex="1" parent="1">
          <mxGeometry x="365" y="660" width="120" height="60" as="geometry" />
        </mxCell>
        <mxCell id="w3mqnWYTgWvGElsCUYTH-12" value="" style="endArrow=none;html=1;rounded=0;entryX=0;entryY=0.5;entryDx=0;entryDy=0;" edge="1" parent="1" target="w3mqnWYTgWvGElsCUYTH-11">
          <mxGeometry width="50" height="50" relative="1" as="geometry">
            <mxPoint x="210" y="530" as="sourcePoint" />
            <mxPoint x="380" y="588" as="targetPoint" />
          </mxGeometry>
        </mxCell>
        <mxCell id="w3mqnWYTgWvGElsCUYTH-13" value="" style="endArrow=none;html=1;rounded=0;exitX=1;exitY=0.5;exitDx=0;exitDy=0;entryX=-0.012;entryY=0.643;entryDx=0;entryDy=0;entryPerimeter=0;" edge="1" parent="1" source="w3mqnWYTgWvGElsCUYTH-7" target="w3mqnWYTgWvGElsCUYTH-4">
          <mxGeometry width="50" height="50" relative="1" as="geometry">
            <mxPoint x="560" y="450" as="sourcePoint" />
            <mxPoint x="630" y="510" as="targetPoint" />
          </mxGeometry>
        </mxCell>
        <mxCell id="w3mqnWYTgWvGElsCUYTH-14" value="" style="endArrow=none;html=1;rounded=0;exitX=1;exitY=0.5;exitDx=0;exitDy=0;entryX=-0.006;entryY=0.614;entryDx=0;entryDy=0;entryPerimeter=0;" edge="1" parent="1" source="w3mqnWYTgWvGElsCUYTH-11" target="w3mqnWYTgWvGElsCUYTH-4">
          <mxGeometry width="50" height="50" relative="1" as="geometry">
            <mxPoint x="480" y="610" as="sourcePoint" />
            <mxPoint x="628" y="515" as="targetPoint" />
          </mxGeometry>
        </mxCell>
        <mxCell id="w3mqnWYTgWvGElsCUYTH-15" value="&amp;lt;&amp;lt;actor&amp;gt;&amp;gt;&lt;br&gt;&lt;br&gt;&lt;b&gt;Application Database&lt;br&gt;&lt;/b&gt;" style="html=1;align=center;verticalAlign=middle;dashed=0;whiteSpace=wrap;" vertex="1" parent="1">
          <mxGeometry x="620" y="620" width="160" height="70" as="geometry" />
        </mxCell>
        <mxCell id="w3mqnWYTgWvGElsCUYTH-16" value="" style="endArrow=none;html=1;rounded=0;exitX=1;exitY=0.5;exitDx=0;exitDy=0;" edge="1" parent="1" source="w3mqnWYTgWvGElsCUYTH-7">
          <mxGeometry width="50" height="50" relative="1" as="geometry">
            <mxPoint x="495" y="610" as="sourcePoint" />
            <mxPoint x="620" y="660" as="targetPoint" />
          </mxGeometry>
        </mxCell>
      </root>
    </mxGraphModel>
  </diagram>
  <diagram id="TxyX_dS2rLnOJCDUXGEh" name="ViewOtherUserProfile">
    <mxGraphModel dx="816" dy="1130" grid="1" gridSize="10" guides="1" tooltips="1" connect="1" arrows="1" fold="1" page="1" pageScale="1" pageWidth="850" pageHeight="1100" math="0" shadow="0">
      <root>
        <mxCell id="0" />
        <mxCell id="1" parent="0" />
        <mxCell id="AK7tSNY2n3katcKIi88y-1" value="&lt;h2&gt;&lt;br&gt;&lt;/h2&gt;" style="rounded=0;whiteSpace=wrap;html=1;align=center;" vertex="1" parent="1">
          <mxGeometry x="285" y="240" width="280" height="540" as="geometry" />
        </mxCell>
        <mxCell id="AK7tSNY2n3katcKIi88y-2" value="ViewAOtherUserProfile" style="ellipse;whiteSpace=wrap;html=1;" vertex="1" parent="1">
          <mxGeometry x="300" y="360" width="120" height="60" as="geometry" />
        </mxCell>
        <mxCell id="AK7tSNY2n3katcKIi88y-3" value="User&lt;br&gt;" style="shape=umlActor;verticalLabelPosition=bottom;verticalAlign=top;html=1;outlineConnect=0;" vertex="1" parent="1">
          <mxGeometry x="170" y="460" width="30" height="60" as="geometry" />
        </mxCell>
        <mxCell id="AK7tSNY2n3katcKIi88y-4" value="&amp;lt;&amp;lt;actor&amp;gt;&amp;gt;&lt;br&gt;&lt;br&gt;&lt;b&gt;Application&lt;br&gt;&lt;/b&gt;" style="html=1;align=center;verticalAlign=middle;dashed=0;whiteSpace=wrap;" vertex="1" parent="1">
          <mxGeometry x="620" y="460" width="160" height="70" as="geometry" />
        </mxCell>
        <mxCell id="AK7tSNY2n3katcKIi88y-5" value="" style="endArrow=none;html=1;rounded=0;entryX=0;entryY=0.5;entryDx=0;entryDy=0;" edge="1" parent="1" target="AK7tSNY2n3katcKIi88y-2">
          <mxGeometry width="50" height="50" relative="1" as="geometry">
            <mxPoint x="200" y="450" as="sourcePoint" />
            <mxPoint x="365" y="400" as="targetPoint" />
          </mxGeometry>
        </mxCell>
        <mxCell id="AK7tSNY2n3katcKIi88y-6" value="ViewOtherUserProfile" style="text;html=1;strokeColor=none;fillColor=none;align=center;verticalAlign=middle;whiteSpace=wrap;rounded=0;" vertex="1" parent="1">
          <mxGeometry x="395" y="250" width="60" height="30" as="geometry" />
        </mxCell>
        <mxCell id="AK7tSNY2n3katcKIi88y-9" value="ShowDetailed OtherUserPage" style="ellipse;whiteSpace=wrap;html=1;" vertex="1" parent="1">
          <mxGeometry x="445" y="350" width="120" height="60" as="geometry" />
        </mxCell>
        <mxCell id="AK7tSNY2n3katcKIi88y-10" value="" style="endArrow=none;html=1;rounded=0;exitX=1;exitY=0.5;exitDx=0;exitDy=0;" edge="1" parent="1" source="AK7tSNY2n3katcKIi88y-9">
          <mxGeometry width="50" height="50" relative="1" as="geometry">
            <mxPoint x="489" y="576" as="sourcePoint" />
            <mxPoint x="620" y="500" as="targetPoint" />
          </mxGeometry>
        </mxCell>
        <mxCell id="AK7tSNY2n3katcKIi88y-13" value="ViewAOtherUserTimeline" style="ellipse;whiteSpace=wrap;html=1;" vertex="1" parent="1">
          <mxGeometry x="300" y="540" width="120" height="60" as="geometry" />
        </mxCell>
        <mxCell id="AK7tSNY2n3katcKIi88y-14" value="" style="endArrow=none;html=1;rounded=0;entryX=0;entryY=0.5;entryDx=0;entryDy=0;" edge="1" parent="1" target="AK7tSNY2n3katcKIi88y-13">
          <mxGeometry width="50" height="50" relative="1" as="geometry">
            <mxPoint x="210" y="460" as="sourcePoint" />
            <mxPoint x="310" y="370" as="targetPoint" />
          </mxGeometry>
        </mxCell>
        <mxCell id="7UskMcOxFfPbWJQk3v9j-1" value="ShowDetailed OtherUserTimelinePage" style="ellipse;whiteSpace=wrap;html=1;" vertex="1" parent="1">
          <mxGeometry x="445" y="570" width="120" height="60" as="geometry" />
        </mxCell>
        <mxCell id="7UskMcOxFfPbWJQk3v9j-4" value="" style="endArrow=none;html=1;rounded=0;exitX=1;exitY=0.5;exitDx=0;exitDy=0;entryX=0;entryY=0.5;entryDx=0;entryDy=0;" edge="1" parent="1" source="7UskMcOxFfPbWJQk3v9j-1" target="AK7tSNY2n3katcKIi88y-4">
          <mxGeometry width="50" height="50" relative="1" as="geometry">
            <mxPoint x="545" y="440" as="sourcePoint" />
            <mxPoint x="615" y="580" as="targetPoint" />
          </mxGeometry>
        </mxCell>
      </root>
    </mxGraphModel>
  </diagram>
  <diagram id="_wCkfWUnT5n9whFQ-zQ3" name="ViewOtherUserTimeline">
    <mxGraphModel dx="816" dy="1130" grid="1" gridSize="10" guides="1" tooltips="1" connect="1" arrows="1" fold="1" page="1" pageScale="1" pageWidth="850" pageHeight="1100" math="0" shadow="0">
      <root>
        <mxCell id="0" />
        <mxCell id="1" parent="0" />
        <mxCell id="wxCR-1wq4PRX-rscv7nD-1" value="&lt;h2&gt;&lt;br&gt;&lt;/h2&gt;" style="rounded=0;whiteSpace=wrap;html=1;align=center;" vertex="1" parent="1">
          <mxGeometry x="285" y="240" width="280" height="540" as="geometry" />
        </mxCell>
        <mxCell id="wxCR-1wq4PRX-rscv7nD-2" value="ViewAOtherUserTimelinePage" style="ellipse;whiteSpace=wrap;html=1;" vertex="1" parent="1">
          <mxGeometry x="285" y="350" width="120" height="60" as="geometry" />
        </mxCell>
        <mxCell id="wxCR-1wq4PRX-rscv7nD-3" value="User&lt;br&gt;" style="shape=umlActor;verticalLabelPosition=bottom;verticalAlign=top;html=1;outlineConnect=0;" vertex="1" parent="1">
          <mxGeometry x="170" y="460" width="30" height="60" as="geometry" />
        </mxCell>
        <mxCell id="wxCR-1wq4PRX-rscv7nD-4" value="&amp;lt;&amp;lt;actor&amp;gt;&amp;gt;&lt;br&gt;&lt;br&gt;&lt;b&gt;Application&lt;br&gt;&lt;/b&gt;" style="html=1;align=center;verticalAlign=middle;dashed=0;whiteSpace=wrap;" vertex="1" parent="1">
          <mxGeometry x="620" y="460" width="160" height="70" as="geometry" />
        </mxCell>
        <mxCell id="wxCR-1wq4PRX-rscv7nD-5" value="" style="endArrow=none;html=1;rounded=0;entryX=0;entryY=0.5;entryDx=0;entryDy=0;" edge="1" parent="1" target="wxCR-1wq4PRX-rscv7nD-2">
          <mxGeometry width="50" height="50" relative="1" as="geometry">
            <mxPoint x="200" y="450" as="sourcePoint" />
            <mxPoint x="365" y="400" as="targetPoint" />
          </mxGeometry>
        </mxCell>
        <mxCell id="wxCR-1wq4PRX-rscv7nD-6" value="ViewOtherUserTimeline" style="text;html=1;strokeColor=none;fillColor=none;align=center;verticalAlign=middle;whiteSpace=wrap;rounded=0;" vertex="1" parent="1">
          <mxGeometry x="395" y="250" width="60" height="30" as="geometry" />
        </mxCell>
        <mxCell id="wxCR-1wq4PRX-rscv7nD-7" value="SearchForA OtherUserTimeline" style="ellipse;whiteSpace=wrap;html=1;" vertex="1" parent="1">
          <mxGeometry x="380" y="590" width="120" height="60" as="geometry" />
        </mxCell>
        <mxCell id="wxCR-1wq4PRX-rscv7nD-8" value="" style="endArrow=none;html=1;rounded=0;entryX=0;entryY=0.5;entryDx=0;entryDy=0;" edge="1" parent="1" target="wxCR-1wq4PRX-rscv7nD-7">
          <mxGeometry width="50" height="50" relative="1" as="geometry">
            <mxPoint x="210" y="540" as="sourcePoint" />
            <mxPoint x="450" y="400" as="targetPoint" />
          </mxGeometry>
        </mxCell>
        <mxCell id="wxCR-1wq4PRX-rscv7nD-9" value="ShowDetailed ViewOtherUserTimelinePage" style="ellipse;whiteSpace=wrap;html=1;" vertex="1" parent="1">
          <mxGeometry x="445" y="330" width="120" height="60" as="geometry" />
        </mxCell>
        <mxCell id="wxCR-1wq4PRX-rscv7nD-10" value="" style="endArrow=none;html=1;rounded=0;exitX=1;exitY=0.5;exitDx=0;exitDy=0;" edge="1" parent="1" source="wxCR-1wq4PRX-rscv7nD-9">
          <mxGeometry width="50" height="50" relative="1" as="geometry">
            <mxPoint x="489" y="576" as="sourcePoint" />
            <mxPoint x="620" y="500" as="targetPoint" />
          </mxGeometry>
        </mxCell>
        <mxCell id="wxCR-1wq4PRX-rscv7nD-11" value="&amp;lt;&amp;lt;actor&amp;gt;&amp;gt;&lt;br&gt;&lt;br&gt;&lt;b&gt;Application Database&lt;br&gt;&lt;/b&gt;" style="html=1;align=center;verticalAlign=middle;dashed=0;whiteSpace=wrap;" vertex="1" parent="1">
          <mxGeometry x="620" y="620" width="160" height="70" as="geometry" />
        </mxCell>
        <mxCell id="wxCR-1wq4PRX-rscv7nD-12" value="" style="endArrow=none;html=1;rounded=0;exitX=1;exitY=0.5;exitDx=0;exitDy=0;entryX=0;entryY=0.5;entryDx=0;entryDy=0;" edge="1" parent="1" source="wxCR-1wq4PRX-rscv7nD-7" target="wxCR-1wq4PRX-rscv7nD-11">
          <mxGeometry width="50" height="50" relative="1" as="geometry">
            <mxPoint x="560" y="370" as="sourcePoint" />
            <mxPoint x="630" y="510" as="targetPoint" />
          </mxGeometry>
        </mxCell>
      </root>
    </mxGraphModel>
  </diagram>
  <diagram id="jZqdEvlyqDif4ST_2VYF" name="ViewTimeline">
    <mxGraphModel dx="816" dy="1130" grid="1" gridSize="10" guides="1" tooltips="1" connect="1" arrows="1" fold="1" page="1" pageScale="1" pageWidth="850" pageHeight="1100" math="0" shadow="0">
      <root>
        <mxCell id="0" />
        <mxCell id="1" parent="0" />
        <mxCell id="0jlgj4brZ91VLVC4Ud2e-1" value="&lt;h2&gt;&lt;br&gt;&lt;/h2&gt;" style="rounded=0;whiteSpace=wrap;html=1;align=center;" vertex="1" parent="1">
          <mxGeometry x="285" y="240" width="280" height="540" as="geometry" />
        </mxCell>
        <mxCell id="0jlgj4brZ91VLVC4Ud2e-2" value="ViewATimeLine" style="ellipse;whiteSpace=wrap;html=1;" vertex="1" parent="1">
          <mxGeometry x="300" y="330" width="120" height="60" as="geometry" />
        </mxCell>
        <mxCell id="0jlgj4brZ91VLVC4Ud2e-3" value="User&lt;br&gt;" style="shape=umlActor;verticalLabelPosition=bottom;verticalAlign=top;html=1;outlineConnect=0;" vertex="1" parent="1">
          <mxGeometry x="170" y="460" width="30" height="60" as="geometry" />
        </mxCell>
        <mxCell id="0jlgj4brZ91VLVC4Ud2e-4" value="&amp;lt;&amp;lt;actor&amp;gt;&amp;gt;&lt;br&gt;&lt;br&gt;&lt;b&gt;Application&lt;br&gt;&lt;/b&gt;" style="html=1;align=center;verticalAlign=middle;dashed=0;whiteSpace=wrap;" vertex="1" parent="1">
          <mxGeometry x="620" y="460" width="160" height="70" as="geometry" />
        </mxCell>
        <mxCell id="0jlgj4brZ91VLVC4Ud2e-5" value="" style="endArrow=none;html=1;rounded=0;entryX=0;entryY=0.5;entryDx=0;entryDy=0;" edge="1" parent="1" target="0jlgj4brZ91VLVC4Ud2e-2">
          <mxGeometry width="50" height="50" relative="1" as="geometry">
            <mxPoint x="200" y="450" as="sourcePoint" />
            <mxPoint x="365" y="400" as="targetPoint" />
          </mxGeometry>
        </mxCell>
        <mxCell id="0jlgj4brZ91VLVC4Ud2e-6" value="TimeLine View" style="text;html=1;strokeColor=none;fillColor=none;align=center;verticalAlign=middle;whiteSpace=wrap;rounded=0;" vertex="1" parent="1">
          <mxGeometry x="395" y="250" width="60" height="30" as="geometry" />
        </mxCell>
        <mxCell id="0jlgj4brZ91VLVC4Ud2e-7" value="SearchForATimeLine" style="ellipse;whiteSpace=wrap;html=1;" vertex="1" parent="1">
          <mxGeometry x="365" y="670" width="120" height="60" as="geometry" />
        </mxCell>
        <mxCell id="0jlgj4brZ91VLVC4Ud2e-8" value="" style="endArrow=none;html=1;rounded=0;entryX=0;entryY=0.5;entryDx=0;entryDy=0;" edge="1" parent="1" target="0jlgj4brZ91VLVC4Ud2e-7">
          <mxGeometry width="50" height="50" relative="1" as="geometry">
            <mxPoint x="210" y="540" as="sourcePoint" />
            <mxPoint x="450" y="400" as="targetPoint" />
          </mxGeometry>
        </mxCell>
        <mxCell id="0jlgj4brZ91VLVC4Ud2e-9" value="ShowDetailed TimeLine View" style="ellipse;whiteSpace=wrap;html=1;" vertex="1" parent="1">
          <mxGeometry x="430" y="330" width="120" height="60" as="geometry" />
        </mxCell>
        <mxCell id="0jlgj4brZ91VLVC4Ud2e-10" value="" style="endArrow=none;html=1;rounded=0;exitX=1;exitY=0.5;exitDx=0;exitDy=0;" edge="1" parent="1" source="0jlgj4brZ91VLVC4Ud2e-9">
          <mxGeometry width="50" height="50" relative="1" as="geometry">
            <mxPoint x="489" y="576" as="sourcePoint" />
            <mxPoint x="620" y="500" as="targetPoint" />
          </mxGeometry>
        </mxCell>
        <mxCell id="0jlgj4brZ91VLVC4Ud2e-11" value="&amp;lt;&amp;lt;actor&amp;gt;&amp;gt;&lt;br&gt;&lt;br&gt;&lt;b&gt;Application Database&lt;br&gt;&lt;/b&gt;" style="html=1;align=center;verticalAlign=middle;dashed=0;whiteSpace=wrap;" vertex="1" parent="1">
          <mxGeometry x="620" y="620" width="160" height="70" as="geometry" />
        </mxCell>
        <mxCell id="0jlgj4brZ91VLVC4Ud2e-12" value="" style="endArrow=none;html=1;rounded=0;exitX=1;exitY=0.5;exitDx=0;exitDy=0;entryX=0;entryY=0.5;entryDx=0;entryDy=0;" edge="1" parent="1" source="0jlgj4brZ91VLVC4Ud2e-7" target="0jlgj4brZ91VLVC4Ud2e-11">
          <mxGeometry width="50" height="50" relative="1" as="geometry">
            <mxPoint x="560" y="370" as="sourcePoint" />
            <mxPoint x="630" y="510" as="targetPoint" />
          </mxGeometry>
        </mxCell>
        <mxCell id="0jlgj4brZ91VLVC4Ud2e-13" value="Create A TimeLine" style="ellipse;whiteSpace=wrap;html=1;" vertex="1" parent="1">
          <mxGeometry x="365" y="410" width="120" height="60" as="geometry" />
        </mxCell>
        <mxCell id="0jlgj4brZ91VLVC4Ud2e-14" value="DeleteATimeLine" style="ellipse;whiteSpace=wrap;html=1;" vertex="1" parent="1">
          <mxGeometry x="365" y="580" width="120" height="60" as="geometry" />
        </mxCell>
        <mxCell id="0jlgj4brZ91VLVC4Ud2e-15" value="EditExisting TimeLine" style="ellipse;whiteSpace=wrap;html=1;" vertex="1" parent="1">
          <mxGeometry x="365" y="490" width="120" height="60" as="geometry" />
        </mxCell>
        <mxCell id="0jlgj4brZ91VLVC4Ud2e-16" value="" style="endArrow=none;html=1;rounded=0;entryX=0;entryY=0.5;entryDx=0;entryDy=0;" edge="1" parent="1" target="0jlgj4brZ91VLVC4Ud2e-13">
          <mxGeometry width="50" height="50" relative="1" as="geometry">
            <mxPoint x="210" y="460" as="sourcePoint" />
            <mxPoint x="310" y="370" as="targetPoint" />
          </mxGeometry>
        </mxCell>
        <mxCell id="0jlgj4brZ91VLVC4Ud2e-17" value="" style="endArrow=none;html=1;rounded=0;entryX=0.025;entryY=0.617;entryDx=0;entryDy=0;entryPerimeter=0;" edge="1" parent="1" target="0jlgj4brZ91VLVC4Ud2e-15">
          <mxGeometry width="50" height="50" relative="1" as="geometry">
            <mxPoint x="210" y="480" as="sourcePoint" />
            <mxPoint x="310" y="450" as="targetPoint" />
          </mxGeometry>
        </mxCell>
        <mxCell id="0jlgj4brZ91VLVC4Ud2e-18" value="" style="endArrow=none;html=1;rounded=0;entryX=0;entryY=0.5;entryDx=0;entryDy=0;" edge="1" parent="1" target="0jlgj4brZ91VLVC4Ud2e-14">
          <mxGeometry width="50" height="50" relative="1" as="geometry">
            <mxPoint x="210" y="500" as="sourcePoint" />
            <mxPoint x="313" y="537" as="targetPoint" />
          </mxGeometry>
        </mxCell>
        <mxCell id="0jlgj4brZ91VLVC4Ud2e-19" value="" style="endArrow=none;html=1;rounded=0;exitX=1;exitY=0.5;exitDx=0;exitDy=0;" edge="1" parent="1" source="0jlgj4brZ91VLVC4Ud2e-13">
          <mxGeometry width="50" height="50" relative="1" as="geometry">
            <mxPoint x="220" y="550" as="sourcePoint" />
            <mxPoint x="620" y="500" as="targetPoint" />
          </mxGeometry>
        </mxCell>
        <mxCell id="0jlgj4brZ91VLVC4Ud2e-20" value="" style="endArrow=none;html=1;rounded=0;exitX=1;exitY=0.5;exitDx=0;exitDy=0;" edge="1" parent="1" source="0jlgj4brZ91VLVC4Ud2e-15">
          <mxGeometry width="50" height="50" relative="1" as="geometry">
            <mxPoint x="495" y="450" as="sourcePoint" />
            <mxPoint x="620" y="500" as="targetPoint" />
          </mxGeometry>
        </mxCell>
        <mxCell id="0jlgj4brZ91VLVC4Ud2e-21" value="" style="endArrow=none;html=1;rounded=0;exitX=1;exitY=0.5;exitDx=0;exitDy=0;" edge="1" parent="1" source="0jlgj4brZ91VLVC4Ud2e-14">
          <mxGeometry width="50" height="50" relative="1" as="geometry">
            <mxPoint x="505" y="460" as="sourcePoint" />
            <mxPoint x="620" y="500" as="targetPoint" />
          </mxGeometry>
        </mxCell>
        <mxCell id="0jlgj4brZ91VLVC4Ud2e-22" value="" style="endArrow=none;html=1;rounded=0;exitX=1;exitY=0.5;exitDx=0;exitDy=0;entryX=0;entryY=0.5;entryDx=0;entryDy=0;" edge="1" parent="1" source="0jlgj4brZ91VLVC4Ud2e-13" target="0jlgj4brZ91VLVC4Ud2e-11">
          <mxGeometry width="50" height="50" relative="1" as="geometry">
            <mxPoint x="495" y="620" as="sourcePoint" />
            <mxPoint x="630" y="510" as="targetPoint" />
          </mxGeometry>
        </mxCell>
        <mxCell id="0jlgj4brZ91VLVC4Ud2e-23" value="" style="endArrow=none;html=1;rounded=0;exitX=1;exitY=0.5;exitDx=0;exitDy=0;entryX=0;entryY=0.5;entryDx=0;entryDy=0;" edge="1" parent="1" source="0jlgj4brZ91VLVC4Ud2e-15" target="0jlgj4brZ91VLVC4Ud2e-11">
          <mxGeometry width="50" height="50" relative="1" as="geometry">
            <mxPoint x="505" y="630" as="sourcePoint" />
            <mxPoint x="640" y="520" as="targetPoint" />
          </mxGeometry>
        </mxCell>
        <mxCell id="0jlgj4brZ91VLVC4Ud2e-24" value="" style="endArrow=none;html=1;rounded=0;exitX=1;exitY=0.5;exitDx=0;exitDy=0;entryX=0;entryY=0.5;entryDx=0;entryDy=0;" edge="1" parent="1" source="0jlgj4brZ91VLVC4Ud2e-14" target="0jlgj4brZ91VLVC4Ud2e-11">
          <mxGeometry width="50" height="50" relative="1" as="geometry">
            <mxPoint x="515" y="640" as="sourcePoint" />
            <mxPoint x="650" y="530" as="targetPoint" />
          </mxGeometry>
        </mxCell>
      </root>
    </mxGraphModel>
  </diagram>
  <diagram id="lJnzYVj-iFGRMD-YKrYZ" name="AddJournalEntry2TimeLine">
    <mxGraphModel dx="816" dy="1130" grid="1" gridSize="10" guides="1" tooltips="1" connect="1" arrows="1" fold="1" page="1" pageScale="1" pageWidth="850" pageHeight="1100" math="0" shadow="0">
      <root>
        <mxCell id="0" />
        <mxCell id="1" parent="0" />
        <mxCell id="4JUyZPiPqy6yvs1Ve6OI-1" value="&lt;h2&gt;&lt;br&gt;&lt;/h2&gt;" style="rounded=0;whiteSpace=wrap;html=1;align=center;" vertex="1" parent="1">
          <mxGeometry x="285" y="240" width="280" height="540" as="geometry" />
        </mxCell>
        <mxCell id="4JUyZPiPqy6yvs1Ve6OI-2" value="Select JournalToPublish" style="ellipse;whiteSpace=wrap;html=1;" vertex="1" parent="1">
          <mxGeometry x="300" y="440" width="120" height="60" as="geometry" />
        </mxCell>
        <mxCell id="4JUyZPiPqy6yvs1Ve6OI-3" value="User&lt;br&gt;" style="shape=umlActor;verticalLabelPosition=bottom;verticalAlign=top;html=1;outlineConnect=0;" vertex="1" parent="1">
          <mxGeometry x="170" y="460" width="30" height="60" as="geometry" />
        </mxCell>
        <mxCell id="4JUyZPiPqy6yvs1Ve6OI-4" value="&amp;lt;&amp;lt;actor&amp;gt;&amp;gt;&lt;br&gt;&lt;br&gt;&lt;b&gt;Application&lt;br&gt;&lt;/b&gt;" style="html=1;align=center;verticalAlign=middle;dashed=0;whiteSpace=wrap;" vertex="1" parent="1">
          <mxGeometry x="620" y="460" width="160" height="70" as="geometry" />
        </mxCell>
        <mxCell id="4JUyZPiPqy6yvs1Ve6OI-5" value="" style="endArrow=none;html=1;rounded=0;entryX=0;entryY=0.5;entryDx=0;entryDy=0;" edge="1" parent="1" target="4JUyZPiPqy6yvs1Ve6OI-2">
          <mxGeometry width="50" height="50" relative="1" as="geometry">
            <mxPoint x="200" y="450" as="sourcePoint" />
            <mxPoint x="365" y="400" as="targetPoint" />
            <Array as="points">
              <mxPoint x="250" y="460" />
            </Array>
          </mxGeometry>
        </mxCell>
        <mxCell id="4JUyZPiPqy6yvs1Ve6OI-6" value="Add Journal Entry" style="text;html=1;strokeColor=none;fillColor=none;align=center;verticalAlign=middle;whiteSpace=wrap;rounded=0;" vertex="1" parent="1">
          <mxGeometry x="395" y="250" width="60" height="30" as="geometry" />
        </mxCell>
        <mxCell id="4JUyZPiPqy6yvs1Ve6OI-7" value="AddJournal" style="ellipse;whiteSpace=wrap;html=1;" vertex="1" parent="1">
          <mxGeometry x="365" y="590" width="120" height="60" as="geometry" />
        </mxCell>
        <mxCell id="4JUyZPiPqy6yvs1Ve6OI-8" value="" style="endArrow=none;html=1;rounded=0;entryX=0;entryY=0.5;entryDx=0;entryDy=0;" edge="1" parent="1" target="4JUyZPiPqy6yvs1Ve6OI-7">
          <mxGeometry width="50" height="50" relative="1" as="geometry">
            <mxPoint x="210" y="490" as="sourcePoint" />
            <mxPoint x="450" y="400" as="targetPoint" />
          </mxGeometry>
        </mxCell>
        <mxCell id="4JUyZPiPqy6yvs1Ve6OI-11" value="DiscardJournal" style="ellipse;whiteSpace=wrap;html=1;" vertex="1" parent="1">
          <mxGeometry x="365" y="700" width="120" height="60" as="geometry" />
        </mxCell>
        <mxCell id="4JUyZPiPqy6yvs1Ve6OI-12" value="" style="endArrow=none;html=1;rounded=0;entryX=0;entryY=0.5;entryDx=0;entryDy=0;" edge="1" parent="1" target="4JUyZPiPqy6yvs1Ve6OI-11">
          <mxGeometry width="50" height="50" relative="1" as="geometry">
            <mxPoint x="210" y="530" as="sourcePoint" />
            <mxPoint x="380" y="588" as="targetPoint" />
          </mxGeometry>
        </mxCell>
        <mxCell id="4JUyZPiPqy6yvs1Ve6OI-13" value="" style="endArrow=none;html=1;rounded=0;exitX=1;exitY=0.5;exitDx=0;exitDy=0;entryX=-0.012;entryY=0.643;entryDx=0;entryDy=0;entryPerimeter=0;" edge="1" parent="1" source="4JUyZPiPqy6yvs1Ve6OI-7" target="4JUyZPiPqy6yvs1Ve6OI-4">
          <mxGeometry width="50" height="50" relative="1" as="geometry">
            <mxPoint x="560" y="450" as="sourcePoint" />
            <mxPoint x="630" y="510" as="targetPoint" />
          </mxGeometry>
        </mxCell>
        <mxCell id="4JUyZPiPqy6yvs1Ve6OI-14" value="" style="endArrow=none;html=1;rounded=0;exitX=1;exitY=0.5;exitDx=0;exitDy=0;entryX=-0.006;entryY=0.614;entryDx=0;entryDy=0;entryPerimeter=0;" edge="1" parent="1" source="4JUyZPiPqy6yvs1Ve6OI-11" target="4JUyZPiPqy6yvs1Ve6OI-4">
          <mxGeometry width="50" height="50" relative="1" as="geometry">
            <mxPoint x="480" y="610" as="sourcePoint" />
            <mxPoint x="628" y="515" as="targetPoint" />
          </mxGeometry>
        </mxCell>
        <mxCell id="4JUyZPiPqy6yvs1Ve6OI-15" value="&amp;lt;&amp;lt;actor&amp;gt;&amp;gt;&lt;br&gt;&lt;br&gt;&lt;b&gt;Application Database&lt;br&gt;&lt;/b&gt;" style="html=1;align=center;verticalAlign=middle;dashed=0;whiteSpace=wrap;" vertex="1" parent="1">
          <mxGeometry x="620" y="620" width="160" height="70" as="geometry" />
        </mxCell>
        <mxCell id="4JUyZPiPqy6yvs1Ve6OI-16" value="" style="endArrow=none;html=1;rounded=0;exitX=1;exitY=0.5;exitDx=0;exitDy=0;" edge="1" parent="1" source="4JUyZPiPqy6yvs1Ve6OI-7">
          <mxGeometry width="50" height="50" relative="1" as="geometry">
            <mxPoint x="495" y="610" as="sourcePoint" />
            <mxPoint x="620" y="660" as="targetPoint" />
          </mxGeometry>
        </mxCell>
        <mxCell id="wyYg7cuwq78je6fsSKo3-1" value="Click on NewJournalToTimeline" style="ellipse;whiteSpace=wrap;html=1;" vertex="1" parent="1">
          <mxGeometry x="300" y="340" width="120" height="60" as="geometry" />
        </mxCell>
        <mxCell id="wyYg7cuwq78je6fsSKo3-2" value="" style="endArrow=none;html=1;rounded=0;entryX=0.05;entryY=0.683;entryDx=0;entryDy=0;entryPerimeter=0;" edge="1" parent="1" target="wyYg7cuwq78je6fsSKo3-1">
          <mxGeometry width="50" height="50" relative="1" as="geometry">
            <mxPoint x="200" y="450" as="sourcePoint" />
            <mxPoint x="310" y="480" as="targetPoint" />
            <Array as="points" />
          </mxGeometry>
        </mxCell>
      </root>
    </mxGraphModel>
  </diagram>
</mxfile>
